# Blender v2.83.2 OBJ File: 'Timber.blend'
# www.blender.org
mtllib Timber.mtl
o Timber_1_Cylinder
v -13.543248 0.924612 -1.391114
v -8.695016 0.856606 -1.377456
v -13.544414 0.100252 -0.567684
v -8.635342 0.032246 -0.556190
v -13.546063 0.099594 0.597479
v -8.550901 0.031589 0.605910
v -8.491160 0.855016 1.428102
v -13.547232 2.088189 1.422495
v -8.491113 2.020184 1.428758
v -13.546066 2.912549 0.599065
v -8.550787 2.844544 0.607492
v -13.544416 2.913207 -0.566098
v -8.635226 2.845201 -0.554608
v -13.543249 2.089776 -1.390457
v -8.694969 2.021771 -1.376800
v -9.976373 2.934527 -0.422027
v -10.657349 2.963375 -0.416320
v -10.097694 2.883128 -0.075824
v -10.582825 2.893053 -0.071423
v -10.477389 2.660718 -0.617377
v -10.103330 2.690466 -0.584817
v -9.761261 2.858697 -0.407006
v -9.916463 2.828856 0.121007
v -10.769862 2.844863 0.136663
v -10.889641 2.880237 -0.393114
v -10.610599 2.485868 -0.732779
v -9.932940 2.536103 -0.678391
v -9.928978 3.256276 -0.625448
v -10.407985 3.318056 -0.644466
v -10.027590 3.319512 -0.425701
v -10.295538 3.347126 -0.437184
v -10.240940 3.185247 -0.810295
v -10.035730 3.193350 -0.780600
v -10.901237 0.887254 -1.208844
v -10.901237 0.062895 -0.385413
v -10.901237 0.062237 0.779751
v -10.901237 2.050832 1.604768
v -10.901237 2.875191 0.781337
v -10.901237 2.052418 -1.208186
v -16.129333 0.887775 -1.229694
v -16.148546 0.063415 -0.406488
v -16.175734 0.062758 0.758359
v -16.194969 0.883897 1.582494
v -16.194984 2.051353 1.583151
v -16.175770 2.875712 0.759945
v -16.148584 2.876370 -0.404902
v -16.129349 2.052939 -1.229037
v -9.928856 3.622721 -0.707117
v -10.293058 3.677339 -0.701725
v -10.000882 3.647474 -0.543807
v -10.204255 3.672751 -0.544031
v -10.165559 3.616041 -0.855782
v -10.005356 3.616004 -0.836197
v -13.547079 1.698858 1.421719
v -13.127550 0.098231 0.603271
v -13.309242 0.918173 1.453596
v -13.925011 0.917593 1.469288
v -14.130127 0.097009 0.629957
v -14.029664 0.667638 1.231203
v -13.996939 0.469169 1.005352
v -14.079770 0.302601 0.836034
v -13.214034 0.596611 1.126200
v -13.149638 0.393879 0.911733
v -13.191370 0.773134 1.323051
v -13.380837 1.574169 1.421596
v -13.857810 1.415408 1.437585
v -7.382928 0.266509 -0.710635
v -7.285202 0.032243 -0.480110
v -7.474014 0.031586 0.582667
v -6.681371 2.714090 0.799652
v -6.820740 2.152002 -1.207104
v -7.914564 0.855016 1.451446
v -7.867837 0.031585 0.641337
v -8.084538 0.492806 1.116561
v -7.768167 1.662502 1.484054
v -7.769208 1.373951 1.498686
v -7.908688 1.273141 1.477383
v -7.886690 0.032243 -0.513214
v -8.159852 0.856603 -1.358588
v -7.889529 1.761415 -1.320192
v -7.811703 1.436793 -1.292258
v -7.958699 1.267546 -1.316030
v -7.975344 1.079460 -1.331387
v -8.000631 0.493561 -0.942945
v -7.709843 0.326139 -0.768653
v -7.111132 0.031915 -0.090328
v -7.450071 0.031750 0.332437
v -6.972239 2.267950 1.258560
v -7.043242 2.066577 1.463671
v -7.614547 2.010958 1.492823
v -6.514143 2.677898 -0.675279
v -6.796206 2.845198 -0.495417
v -6.540770 2.845123 -0.373657
v -7.033998 2.021767 -1.310979
v -7.338640 2.074440 -1.268173
v -6.725464 2.371820 1.152102
v -7.410440 2.095225 1.432517
v -6.732438 2.296937 -1.045076
v -6.897911 2.240378 -1.099916
v -6.857667 2.844540 0.672170
v -6.428766 2.844627 0.499726
v -11.191581 1.237023 1.603875
v -11.075341 1.467662 1.605576
v -10.506598 0.875936 1.595136
v -10.901237 1.541667 1.605125
v -10.595872 1.147414 1.599380
v -11.179395 0.888824 1.605441
v -10.901237 0.764176 1.485452
v -17.139847 2.857423 0.558869
v -17.514194 0.169252 0.862552
v -16.786140 2.040611 1.568692
v -16.873390 2.862075 0.742072
v -16.633444 2.405081 1.209539
v -16.932323 1.229977 1.565710
v -16.931068 1.518968 1.565603
v -16.791704 1.622380 1.568812
v -16.911789 2.860236 -0.424306
v -16.679062 2.039805 -1.242529
v -16.990646 1.129181 -1.249317
v -17.026701 1.452547 -1.250315
v -16.819786 2.399600 -0.877753
v -17.066256 2.563347 -0.717311
v -17.328661 2.853351 -0.040562
v -17.176291 2.856383 0.300125
v -17.085758 0.877917 1.569493
v -17.753578 0.202309 -0.609899
v -17.463211 0.038548 -0.435589
v -17.712179 0.035533 -0.308675
v -17.626390 0.480435 1.208889
v -17.293592 0.790220 1.486540
v -17.664053 0.640482 -1.049719
v -17.344522 0.041276 0.732663
v -17.781071 0.035614 0.568046
v -13.544302 0.980860 -1.249655
v -8.692122 0.913808 -1.236391
v -13.544912 0.239481 -0.506123
v -8.633635 0.171154 -0.493912
v -13.546155 0.251829 0.597217
v -8.549293 0.173862 0.551764
v -8.492039 0.914672 1.288047
v -13.545447 2.027217 1.283010
v -8.491934 1.960400 1.288756
v -13.546087 2.770602 0.544062
v -8.553541 2.702613 0.552468
v -13.545477 2.773734 -0.505095
v -8.627322 2.706264 -0.492600
v -13.544422 2.032228 -1.249524
v -8.691435 1.964987 -1.235574
v -10.186032 2.876657 -0.397476
v -10.486169 2.870662 -0.374313
v -10.160434 2.749248 -0.135234
v -10.532719 2.753914 -0.123550
v -10.431596 2.610022 -0.477065
v -10.176763 2.652756 -0.445552
v -9.786013 2.718837 -0.349167
v -9.928413 2.676973 0.114351
v -10.767312 2.692792 0.129879
v -10.864067 2.740996 -0.333946
v -10.610268 2.381876 -0.621603
v -9.926876 2.432817 -0.566627
v -10.158513 3.264346 -0.617106
v -10.188679 3.284450 -0.612629
v -10.177138 3.268868 -0.529769
v -10.177760 3.265630 -0.539494
v -10.160307 3.208037 -0.669539
v -10.182180 3.229352 -0.668803
v -10.898096 0.946944 -1.068813
v -10.896270 0.204927 -0.330727
v -10.897282 0.201787 0.718973
v -10.903506 1.993141 1.463895
v -10.906148 2.735382 0.721193
v -10.905059 1.990180 -1.069280
v -16.121738 0.946577 -1.089367
v -16.151575 0.204893 -0.350311
v -16.183968 0.202734 0.698757
v -16.203012 0.941410 1.441646
v -16.198448 1.993477 1.442365
v -16.173010 2.735948 0.699630
v -16.140377 2.734990 -0.348706
v -16.120277 1.993476 -1.089027
v -10.118345 3.538686 -0.686858
v -10.150339 3.561217 -0.673748
v -10.128700 3.548547 -0.622825
v -10.126425 3.553976 -0.624142
v -10.111138 3.542842 -0.727250
v -10.134094 3.545048 -0.731830
v -13.545140 1.697114 1.269500
v -13.116626 0.245517 0.565453
v -13.283978 0.967755 1.310638
v -13.945603 0.970362 1.327144
v -14.139942 0.243928 0.590621
v -14.046884 0.776105 1.124999
v -14.014158 0.577635 0.899149
v -14.096990 0.411068 0.729830
v -13.193364 0.705944 1.021156
v -13.128968 0.503212 0.806689
v -13.170701 0.882468 1.218007
v -13.355672 1.572074 1.270291
v -13.878241 1.414020 1.285958
v -7.391865 0.369363 -0.598561
v -7.291251 0.176619 -0.431999
v -7.473986 0.183819 0.582767
v -6.687013 2.605755 0.692765
v -6.781958 2.042442 -1.104565
v -7.901426 0.909269 1.309472
v -7.863440 0.179215 0.604302
v -8.062659 0.599043 1.008490
v -7.740373 1.660820 1.332945
v -7.705760 1.366439 1.352542
v -7.878505 1.273684 1.326465
v -7.893919 0.171621 -0.452181
v -8.171403 0.907448 -1.215302
v -7.917132 1.761031 -1.169058
v -7.879634 1.442179 -1.146904
v -7.987849 1.266011 -1.165028
v -7.988763 1.067109 -1.179915
v -8.021245 0.599661 -0.834631
v -7.722819 0.427776 -0.655643
v -7.111104 0.184149 -0.090238
v -7.450050 0.183982 0.332523
v -6.967883 2.158298 1.153002
v -7.041971 1.957853 1.357122
v -7.593646 1.942025 1.357796
v -6.502769 2.570538 -0.567616
v -6.797218 2.702739 -0.441746
v -6.540777 2.692891 -0.373742
v -7.030330 1.915524 -1.201974
v -7.348926 1.980918 -1.148250
v -6.724945 2.262597 1.046060
v -7.400976 1.987371 1.325265
v -6.728644 2.189265 -0.937486
v -6.895874 2.133297 -0.991721
v -6.855391 2.701909 0.618989
v -6.428773 2.692395 0.499640
v -11.166414 1.234928 1.452570
v -11.050175 1.465567 1.454271
v -10.528054 0.943559 1.459488
v -10.904701 1.539998 1.452919
v -10.622289 1.146108 1.448161
v -11.155037 0.959502 1.471577
v -10.897555 0.873372 1.379408
v -17.134186 2.705235 0.559133
v -17.512184 0.281220 0.759415
v -16.775948 1.986663 1.426498
v -16.864559 2.715685 0.700701
v -16.622400 2.297545 1.102035
v -16.925425 1.229010 1.413546
v -16.922939 1.518897 1.413466
v -16.783504 1.622390 1.416677
v -16.908289 2.718118 -0.369786
v -16.684084 1.985675 -1.100284
v -16.984182 1.151511 -1.098793
v -17.034817 1.452554 -1.098176
v -16.819359 2.292085 -0.769977
v -17.067120 2.456513 -0.608861
v -17.322577 2.701172 -0.040398
v -17.170292 2.704199 0.300291
v -17.082378 0.949529 1.435177
v -17.761082 0.310431 -0.502849
v -17.471340 0.180231 -0.380165
v -17.716570 0.187739 -0.308835
v -17.632256 0.587829 1.101063
v -17.297064 0.895769 1.376867
v -17.666821 0.735973 -0.931171
v -17.347593 0.184857 0.682118
v -17.785440 0.187818 0.567882
vt 0.297208 0.202912
vt 0.388774 0.202976
vt 0.388630 0.272173
vt 0.296353 0.277299
vt 0.389855 0.342463
vt 0.295285 0.348812
vt 0.390027 0.414206
vt 0.309380 0.416776
vt 0.294266 0.407274
vt 0.292743 0.486212
vt 0.391073 0.487055
vt 0.390955 0.560679
vt 0.292545 0.556555
vt 0.394099 0.630758
vt 0.348813 0.628950
vt 0.335395 0.597254
vt 0.442800 0.130979
vt 0.421293 0.149600
vt 0.389815 0.134282
vt 0.340816 0.078302
vt 0.353876 0.054534
vt 0.396575 0.067356
vt 0.299564 0.126796
vt 0.296920 0.633403
vt 0.305401 0.611999
vt 0.316559 0.650001
vt 0.305764 0.656610
vt 0.334683 0.065605
vt 0.316130 0.067482
vt 0.326129 0.033113
vt 0.332567 0.032754
vt 0.340802 0.632745
vt 0.328477 0.611443
vt 0.298492 0.597200
vt 0.288245 0.629294
vt 0.303552 0.045189
vt 0.310603 0.082742
vt 0.295289 0.049683
vt 0.347231 0.049216
vt 0.316614 0.026729
vt 0.324398 0.011425
vt 0.328614 0.017614
vt 0.341363 0.030507
vt 0.332132 0.017850
vt 0.336291 0.013900
vt 0.338344 0.653084
vt 0.326840 0.649009
vt 0.187673 0.128709
vt 0.188255 0.197464
vt 0.185688 0.488841
vt 0.184330 0.562032
vt 0.187873 0.267579
vt 0.204180 0.340333
vt 0.186816 0.339839
vt 0.181816 0.633346
vt 0.185940 0.058095
vt 0.083308 0.129961
vt 0.079624 0.057931
vt 0.162590 0.341254
vt 0.079015 0.345017
vt 0.082059 0.274003
vt 0.078915 0.552529
vt 0.077589 0.483682
vt 0.084568 0.202310
vt 0.079121 0.621852
vt 0.317139 0.671549
vt 0.320573 0.664995
vt 0.325121 0.663807
vt 0.329743 0.669947
vt 0.185934 0.464011
vt 0.192872 0.456262
vt 0.196389 0.414424
vt 0.283281 0.417212
vt 0.282195 0.437705
vt 0.286527 0.451624
vt 0.293365 0.456170
vt 0.201325 0.402025
vt 0.200247 0.385422
vt 0.202854 0.367028
vt 0.170276 0.414825
vt 0.173294 0.446121
vt 0.077477 0.414556
vt 0.164617 0.359388
vt 0.167924 0.374226
vt 0.166371 0.393007
vt 0.418321 0.275367
vt 0.448701 0.301641
vt 0.434517 0.326890
vt 0.417347 0.345158
vt 0.407313 0.384947
vt 0.409671 0.203828
vt 0.415487 0.237107
vt 0.466374 0.622729
vt 0.459630 0.553279
vt 0.475993 0.614847
vt 0.426481 0.252207
vt 0.439308 0.257849
vt 0.419940 0.463580
vt 0.427022 0.484062
vt 0.049024 0.622609
vt 0.032899 0.599531
vt 0.039173 0.579315
vt 0.051459 0.553145
vt 0.060472 0.514073
vt 0.060738 0.131629
vt 0.054018 0.100241
vt 0.028870 0.271935
vt 0.032609 0.342419
vt 0.018836 0.279444
vt 0.042365 0.413736
vt 0.034086 0.406426
vt 0.049400 0.187839
vt 0.047663 0.168101
vt 0.305814 0.432840
vt 0.417503 0.190619
vt 0.418518 0.179240
vt 0.467176 0.068959
vt 0.460455 0.118254
vt 0.477178 0.083792
vt 0.467052 0.114054
vt 0.463034 0.126441
vt 0.454248 0.135556
vt 0.424591 0.169122
vt 0.433185 0.341999
vt 0.442292 0.277903
vt 0.413719 0.414982
vt 0.477178 0.562510
vt 0.453096 0.504383
vt 0.435130 0.490211
vt 0.413709 0.440264
vt 0.419596 0.446166
vt 0.466145 0.542110
vt 0.463200 0.512860
vt 0.449674 0.487161
vt 0.022174 0.219619
vt 0.017606 0.257145
vt 0.040814 0.563920
vt 0.054462 0.483595
vt 0.048701 0.060708
vt 0.015342 0.332250
vt 0.043451 0.086566
vt 0.025725 0.353333
vt 0.021000 0.381300
vt 0.053846 0.458548
vt 0.048315 0.452328
vt 0.048289 0.434968
vt 0.297208 0.202912
vt 0.296353 0.277299
vt 0.388630 0.272173
vt 0.388774 0.202976
vt 0.295285 0.348812
vt 0.389855 0.342463
vt 0.294266 0.407274
vt 0.309380 0.416776
vt 0.390027 0.414206
vt 0.292743 0.486212
vt 0.292545 0.556555
vt 0.390955 0.560679
vt 0.391073 0.487055
vt 0.335395 0.597254
vt 0.348813 0.628950
vt 0.394099 0.630758
vt 0.442800 0.130979
vt 0.389815 0.134282
vt 0.421293 0.149600
vt 0.396575 0.067356
vt 0.353876 0.054534
vt 0.340816 0.078302
vt 0.299564 0.126796
vt 0.296920 0.633403
vt 0.305764 0.656610
vt 0.316559 0.650001
vt 0.305401 0.611999
vt 0.334683 0.065605
vt 0.332567 0.032754
vt 0.326129 0.033113
vt 0.316130 0.067482
vt 0.340802 0.632745
vt 0.328477 0.611443
vt 0.298492 0.597200
vt 0.288245 0.629294
vt 0.303552 0.045189
vt 0.295289 0.049683
vt 0.310603 0.082742
vt 0.347231 0.049216
vt 0.328614 0.017614
vt 0.324398 0.011425
vt 0.316614 0.026729
vt 0.341363 0.030507
vt 0.336291 0.013900
vt 0.332132 0.017850
vt 0.326840 0.649009
vt 0.338344 0.653084
vt 0.187673 0.128709
vt 0.188255 0.197464
vt 0.185688 0.488841
vt 0.184330 0.562032
vt 0.187873 0.267579
vt 0.186816 0.339839
vt 0.204180 0.340333
vt 0.181816 0.633346
vt 0.185940 0.058095
vt 0.079624 0.057931
vt 0.083308 0.129961
vt 0.082059 0.274003
vt 0.079015 0.345017
vt 0.162590 0.341254
vt 0.077589 0.483682
vt 0.078915 0.552529
vt 0.084568 0.202310
vt 0.079121 0.621852
vt 0.317139 0.671549
vt 0.329743 0.669947
vt 0.325121 0.663807
vt 0.320573 0.664995
vt 0.185934 0.464011
vt 0.293365 0.456170
vt 0.286527 0.451624
vt 0.282195 0.437705
vt 0.283281 0.417212
vt 0.196389 0.414424
vt 0.192872 0.456262
vt 0.202854 0.367028
vt 0.200247 0.385422
vt 0.201325 0.402025
vt 0.170276 0.414825
vt 0.077477 0.414556
vt 0.173294 0.446121
vt 0.166371 0.393007
vt 0.167924 0.374226
vt 0.164617 0.359388
vt 0.418321 0.275367
vt 0.434517 0.326890
vt 0.448701 0.301641
vt 0.407313 0.384947
vt 0.417347 0.345158
vt 0.415487 0.237107
vt 0.409671 0.203828
vt 0.466374 0.622729
vt 0.475993 0.614847
vt 0.459630 0.553279
vt 0.426481 0.252207
vt 0.439308 0.257849
vt 0.427022 0.484062
vt 0.419940 0.463580
vt 0.049024 0.622609
vt 0.039173 0.579315
vt 0.032899 0.599531
vt 0.060472 0.514073
vt 0.051459 0.553145
vt 0.054018 0.100241
vt 0.060738 0.131629
vt 0.028870 0.271935
vt 0.018836 0.279444
vt 0.032609 0.342419
vt 0.034086 0.406426
vt 0.042365 0.413736
vt 0.047663 0.168101
vt 0.049400 0.187839
vt 0.305814 0.432840
vt 0.417503 0.190619
vt 0.418518 0.179240
vt 0.460455 0.118254
vt 0.467176 0.068959
vt 0.467052 0.114054
vt 0.477178 0.083792
vt 0.454248 0.135556
vt 0.463034 0.126441
vt 0.424591 0.169122
vt 0.433185 0.341999
vt 0.442292 0.277903
vt 0.413719 0.414982
vt 0.477178 0.562510
vt 0.453096 0.504383
vt 0.435130 0.490211
vt 0.413709 0.440264
vt 0.419596 0.446166
vt 0.466145 0.542110
vt 0.463200 0.512860
vt 0.449674 0.487161
vt 0.022174 0.219619
vt 0.017606 0.257145
vt 0.040814 0.563920
vt 0.054462 0.483595
vt 0.048701 0.060708
vt 0.015342 0.332250
vt 0.043451 0.086566
vt 0.025725 0.353333
vt 0.021000 0.381300
vt 0.053846 0.458548
vt 0.048289 0.434968
vt 0.048315 0.452328
vn -0.0089 -0.3888 -0.9213
vn -0.0055 -0.3779 -0.9258
vn -0.0033 -0.9159 -0.4014
vn -0.0142 -0.9300 -0.3671
vn -0.0054 -0.9316 0.3634
vn -0.0115 -0.9200 0.3916
vn -0.0011 -0.3879 0.9217
vn -0.2409 -0.2634 0.9341
vn 0.0486 -0.1512 0.9873
vn 0.0067 0.3818 0.9242
vn 0.0016 0.3898 0.9209
vn 0.0071 0.9291 0.3696
vn 0.0143 0.9215 0.3880
vn -0.0214 0.9167 -0.3989
vn 0.0601 0.9226 -0.3809
vn 0.0451 0.9981 0.0415
vn 0.0596 0.0240 -0.9979
vn 0.4865 -0.2178 -0.8461
vn -0.0127 0.3760 -0.9265
vn -0.0064 0.6805 -0.7327
vn 0.0129 0.4033 -0.9149
vn -0.5956 0.7305 -0.3341
vn -0.1700 0.9257 0.3378
vn -0.4208 0.5832 0.6948
vn -0.9018 0.3281 -0.2813
vn 0.2498 0.2286 -0.9409
vn -0.1707 0.3270 -0.9294
vn -0.2864 -0.1408 -0.9477
vn 0.5535 -0.2665 -0.7890
vn 0.8727 0.4477 -0.1948
vn 0.2087 0.8863 0.4133
vn -0.0179 0.9989 0.0439
vn -0.0634 0.9202 -0.3862
vn -0.0134 0.6788 -0.7342
vn -0.6341 0.7466 -0.2013
vn -0.1857 0.4980 -0.8471
vn 0.9944 -0.0762 -0.0728
vn 0.4704 0.4767 -0.7426
vn 0.8223 0.5479 -0.1533
vn 0.5910 0.3353 0.7336
vn 0.0034 0.3793 -0.9252
vn 0.0031 -0.3736 -0.9275
vn -0.0051 0.3961 0.9182
vn 0.0000 0.9294 0.3689
vn 0.0014 -0.9178 -0.3970
vn -0.2350 -0.8125 0.5335
vn 0.0197 -0.6677 0.7442
vn 0.0030 0.9187 -0.3948
vn -0.0262 0.3881 -0.9212
vn -0.0238 0.9272 -0.3739
vn 0.2391 -0.8276 0.5077
vn 0.0236 -0.9213 0.3881
vn 0.0085 -0.9275 -0.3735
vn -0.0081 0.9200 0.3918
vn 0.0099 0.3816 0.9243
vn -0.0186 -0.3851 -0.9227
vn -0.2758 0.7909 0.5462
vn 0.4931 0.6793 0.5435
vn 0.0289 -0.4831 0.8751
vn -0.7339 -0.4244 0.5302
vn -0.7225 -0.4284 0.5426
vn 0.3179 -0.1985 0.9271
vn 0.6415 -0.1372 0.7547
vn 0.4813 -0.5133 0.7105
vn -0.1059 -0.4397 0.8918
vn -0.7717 -0.5760 0.2694
vn -0.7995 -0.4629 0.3828
vn -0.7837 -0.5101 0.3541
vn 0.6926 -0.3744 0.6164
vn 0.7349 -0.3825 0.5600
vn 0.0230 -0.3797 0.9248
vn 0.7606 -0.5791 0.2933
vn 0.8007 -0.4806 0.3574
vn 0.7830 -0.4964 0.3749
vn 0.0210 -0.9153 -0.4023
vn 0.8065 -0.5841 0.0914
vn 0.5826 -0.7777 0.2360
vn 0.2403 -0.7710 0.5897
vn 0.5133 -0.6044 0.6092
vn 0.4744 -0.3967 -0.7858
vn 0.5943 -0.2280 -0.7712
vn 0.2357 0.8874 -0.3960
vn 0.2325 0.8815 0.4108
vn 0.6416 0.5758 -0.5067
vn 0.3200 -0.0523 -0.9460
vn 0.5494 0.0021 -0.8356
vn 0.5016 -0.0967 0.8597
vn 0.2997 0.0484 0.9528
vn -0.4207 0.8007 -0.4264
vn -0.8257 0.5348 -0.1792
vn -0.6662 0.7217 0.1875
vn -0.4345 0.7009 0.5656
vn -0.6304 0.5351 0.5624
vn -0.4769 0.3801 -0.7925
vn -0.5476 0.3023 -0.7802
vn -0.2127 -0.8931 -0.3963
vn -0.2280 -0.8839 0.4083
vn -0.6493 -0.5877 -0.4827
vn -0.3831 -0.0492 0.9224
vn -0.4627 -0.0172 0.8863
vn -0.4634 0.0435 -0.8851
vn -0.7547 0.1646 -0.6351
vn -0.5914 -0.3450 0.7288
vn 0.7672 -0.2684 -0.5825
vn 0.6929 -0.2204 -0.6865
vn 0.3664 0.5901 -0.7194
vn 0.7854 0.5645 -0.2538
vn 0.5459 0.0817 -0.8338
vn 0.7149 0.3903 -0.5801
vn 0.1353 -0.1148 -0.9841
vn 0.8955 -0.1926 -0.4011
vn 0.5905 -0.5578 0.5832
vn 0.5908 -0.6681 -0.4523
vn 0.6226 -0.3818 0.6830
vn 0.7143 0.5436 0.4407
vn 0.4666 0.3408 0.8162
vn 0.0667 0.1007 0.9927
vn 0.3741 -0.2707 0.8870
vn 0.5264 -0.3383 0.7801
vn 0.7576 0.6233 0.1939
vn 0.6693 0.1536 0.7269
vn 0.4560 -0.0476 0.8887
vn -0.6754 -0.0959 -0.7312
vn -0.7411 -0.6441 -0.1893
vn -0.6840 0.5826 0.4391
vn -0.6938 0.3422 0.6336
vn -0.6849 -0.5608 0.4651
vn -0.7959 0.2797 -0.5369
vn -0.6703 -0.7311 0.1267
vn -0.7504 -0.3339 0.5705
vn -0.5354 0.2684 0.8008
vn -0.7223 0.3562 0.5928
vn -0.6414 0.1551 0.7513
vn 0.0089 0.3887 0.9213
vn 0.0148 0.9301 0.3669
vn -0.0009 0.9157 0.4019
vn -0.0024 0.3779 0.9258
vn 0.0129 0.9197 -0.3923
vn 0.0031 0.9304 -0.3663
vn 0.0563 0.9814 -0.1837
vn -0.5943 0.5469 -0.5896
vn -0.0035 0.3874 -0.9219
vn -0.0056 -0.3820 -0.9241
vn -0.0146 -0.9232 -0.3839
vn -0.0074 -0.9277 -0.3733
vn -0.0067 -0.3880 -0.9216
vn -0.0430 -0.9978 -0.0500
vn -0.0565 -0.9211 0.3851
vn 0.0225 -0.9172 0.3977
vn 0.0626 -0.9596 0.2743
vn 0.0091 -0.3750 0.9270
vn 0.3571 -0.1424 0.9231
vn 0.0101 -0.6635 0.7481
vn -0.0143 -0.4052 0.9141
vn 0.6662 -0.6655 0.3367
vn 0.9474 -0.2331 0.2193
vn 0.7958 -0.5220 -0.3069
vn 0.1316 -0.9281 -0.3482
vn -0.2346 -0.2513 0.9390
vn -0.9543 0.0749 -0.2892
vn 0.5712 0.0797 0.8169
vn 0.1159 -0.3422 0.9324
vn -0.9511 -0.2618 0.1635
vn -0.1781 -0.8997 -0.3985
vn 0.0133 -0.9987 -0.0486
vn 0.0517 -0.9230 0.3813
vn 0.0103 -0.6720 0.7404
vn 0.2583 -0.5375 -0.8027
vn 0.5314 -0.8137 0.2354
vn -0.9922 0.1102 0.0573
vn -0.9931 -0.1154 0.0201
vn -0.8481 -0.1050 -0.5193
vn -0.6964 -0.4477 -0.5608
vn -0.0038 -0.3790 0.9254
vn -0.0029 0.3741 0.9274
vn 0.0045 -0.3943 -0.9190
vn -0.0005 -0.9289 -0.3704
vn -0.0013 0.9189 0.3945
vn 0.0173 0.7476 0.6639
vn -0.3981 0.9170 0.0255
vn -0.0041 -0.9189 0.3943
vn 0.0273 -0.9263 0.3758
vn 0.0316 -0.3878 0.9212
vn -0.0075 0.9275 0.3738
vn -0.0220 0.9211 -0.3885
vn 0.4061 0.9125 -0.0487
vn -0.0037 -0.3816 -0.9243
vn 0.0116 -0.9200 -0.3917
vn 0.0219 0.3841 0.9230
vn 0.1455 -0.9833 0.1089
vn 0.4148 -0.8878 -0.1991
vn 0.0225 -0.4812 -0.8763
vn -0.1239 -0.4836 -0.8665
vn 0.5792 -0.5847 -0.5680
vn 0.8165 -0.1811 -0.5482
vn 0.6555 0.6481 -0.3876
vn -0.6888 -0.0941 -0.7188
vn -0.5892 -0.3787 -0.7137
vn -0.6428 0.4848 -0.5931
vn -0.6663 0.5036 -0.5499
vn -0.7073 0.3553 -0.6111
vn 0.7288 0.0418 -0.6835
vn -0.0186 0.3792 -0.9251
vn 0.6048 -0.3591 -0.7107
vn 0.6992 0.4582 -0.5487
vn 0.6855 0.4576 -0.5663
vn 0.6234 0.4192 -0.6600
vn -0.0277 0.9112 0.4110
vn 0.5763 0.7831 0.2336
vn 0.7720 0.6300 0.0847
vn 0.7001 0.4933 -0.5162
vn 0.4269 0.8613 0.2756
vn 0.4359 0.8179 0.3755
vn 0.6442 0.0921 0.7592
vn 0.3302 -0.8893 0.3162
vn 0.5911 -0.6508 -0.4765
vn 0.3589 -0.8794 -0.3128
vn 0.2576 0.9402 0.2229
vn 0.5184 0.8513 0.0808
vn 0.5129 -0.7965 -0.3200
vn 0.7298 -0.1181 -0.6734
vn -0.6088 -0.7772 0.1589
vn -0.6161 -0.7663 0.1823
vn -0.7348 -0.6569 -0.1687
vn -0.5801 -0.5904 -0.5611
vn -0.5247 -0.8221 0.2209
vn -0.5259 -0.7851 0.3270
vn -0.7380 -0.1579 0.6561
vn -0.3733 0.8733 0.3128
vn -0.6220 0.6363 -0.4563
vn -0.3843 0.8579 -0.3410
vn -0.4613 0.8830 -0.0867
vn -0.4884 0.7839 -0.3833
vn -0.7468 0.1560 0.6464
vn -0.5338 0.3503 0.7696
vn -0.6816 -0.3629 -0.6354
vn 0.6318 -0.3505 0.6913
vn 0.4645 -0.2117 0.8599
vn 0.3750 -0.7240 0.5789
vn 0.5675 -0.8205 0.0684
vn 0.7596 -0.2935 0.5803
vn 0.1487 -0.9852 -0.0852
vn 0.8683 -0.4435 0.2220
vn 0.5504 -0.1488 0.8215
vn 0.5549 0.6230 0.5512
vn 0.7161 0.6922 -0.0894
vn 0.8394 0.0267 -0.5429
vn 0.6525 -0.6400 0.4057
vn 0.4907 -0.8178 -0.3005
vn 0.0941 -0.9917 -0.0879
vn 0.5683 -0.3017 -0.7655
vn 0.8312 -0.3797 -0.4061
vn 0.6775 -0.2712 -0.6837
vn 0.6682 -0.7315 -0.1357
vn 0.4639 -0.8831 0.0708
vn -0.6598 0.7103 0.2449
vn -0.7120 0.2443 0.6583
vn -0.6135 -0.6695 0.4188
vn -0.7787 -0.0842 -0.6217
vn -0.6512 0.6267 0.4280
vn -0.7587 -0.5581 0.3361
vn -0.6264 0.2333 -0.7437
vn -0.7818 0.5443 -0.3043
vn -0.4670 0.2595 -0.8453
vn -0.6121 0.1134 -0.7826
vn -0.6775 0.3543 -0.6445
g Timber_1_Cylinder_Timber_Textrue
usemtl Timber_Textrue
s 1
f 34/1/1 2/2/2 4/3/3 35/4/4
f 35/4/4 4/3/3 6/5/5 36/6/6
f 36/6/6 6/5/5 7/7/7 104/8/8 108/9/9
f 37/10/10 9/11/11 11/12/12 38/13/13
f 11/12/12 13/14/14 22/15/15 23/16/16
f 95/17/17 80/18/18 15/19/19
f 15/19/19 27/20/20 22/21/15 13/22/14
f 39/23/21 15/19/19 2/2/2 34/1/1
f 17/24/22 19/25/23 31/26/24 29/27/25
f 21/28/26 20/29/27 32/30/28 33/31/29
f 16/32/30 18/33/31 23/16/16 22/15/15
f 18/33/31 19/25/23 24/34/32 23/16/16
f 19/25/23 17/24/22 25/35/33 24/34/32
f 17/36/22 20/29/27 26/37/34 25/38/33
f 20/29/27 21/28/26 27/20/20 26/37/34
f 21/28/26 16/39/30 22/21/15 27/20/20
f 32/30/28 29/40/25 49/41/35 52/42/36
f 28/43/37 33/31/29 53/44/38 48/45/39
f 18/33/31 16/32/30 28/46/37 30/47/40
f 16/39/30 21/28/26 33/31/29 28/43/37
f 20/29/27 17/36/22 29/40/25 32/30/28
f 19/25/23 18/33/31 30/47/40 31/26/24
f 14/48/41 39/23/21 34/1/1 1/49/42
f 8/50/43 37/10/10 38/13/13 10/51/44
f 3/52/45 35/4/4 36/6/6 55/53/46 5/54/47
f 1/49/42 34/1/1 35/4/4 3/52/45
f 10/51/44 38/13/13 24/34/32 25/35/33 12/55/48
f 12/56/48 25/38/33 26/37/34 39/23/21 14/48/41
f 38/13/13 11/12/12 23/16/16 24/34/32
f 39/23/21 26/37/34 27/20/20 15/19/19
f 12/56/48 14/48/41 47/57/49 46/58/50
f 3/52/45 5/54/47 58/59/51 42/60/52 41/61/53
f 8/50/43 10/51/44 45/62/54 44/63/55
f 14/48/41 1/49/42 40/64/56 47/57/49
f 1/49/42 3/52/45 41/61/53 40/64/56
f 10/51/44 12/55/48 46/65/50 45/62/54
f 49/66/35 51/67/57 50/68/58 48/69/39
f 48/45/39 53/44/38 52/42/36 49/41/35
f 31/26/24 30/47/40 50/68/58 51/67/57
f 33/31/29 32/30/28 52/42/36 53/44/38
f 29/27/25 31/26/24 51/67/57 49/66/35
f 30/47/40 28/46/37 48/69/39 50/68/58
f 54/70/59 65/71/60 56/72/61 107/73/62 102/74/63 103/75/64 105/76/65 37/10/10 8/50/43
f 56/72/61 64/77/66 62/78/67 63/79/68 55/53/46 36/6/6 108/9/9 107/73/62
f 57/80/69 66/81/70 54/70/59 8/50/43 44/63/55 43/82/71
f 58/59/51 61/83/72 60/84/73 59/85/74 57/80/69 43/82/71 42/60/52
f 78/86/75 86/87/76 87/88/77
f 6/5/5 73/89/78 74/90/79
f 4/3/3 73/89/78 6/5/5
f 2/2/2 79/91/80 84/92/81
f 92/93/82 100/94/83 93/95/84
f 85/96/85 67/97/86 78/86/75
f 9/11/11 75/98/87 90/99/88
f 117/100/89 123/101/90 124/102/91
f 45/62/54 112/103/92 113/104/93
f 46/65/50 112/103/92 45/62/54
f 47/57/49 118/105/94 121/106/95
f 127/107/96 132/108/97 128/109/98
f 43/82/71 125/110/99 130/111/100
f 40/64/56 119/112/101 120/113/102
f 105/76/65 106/114/103 104/8/8 7/7/7 9/11/11 37/10/10
f 79/91/80 2/2/2 83/115/104
f 2/2/2 15/19/19 82/116/105
f 83/115/104 2/2/2 82/116/105
f 15/19/19 13/22/14 95/17/17
f 13/22/14 92/117/82 99/118/106
f 92/117/82 91/119/107 98/120/108
f 99/118/106 71/121/109 94/122/110
f 92/117/82 98/120/108 99/118/106
f 80/18/18 81/123/111 82/116/105
f 13/22/14 99/118/106 95/17/17
f 99/118/106 94/122/110 95/17/17
f 80/18/18 82/116/105 15/19/19
f 69/124/112 73/89/78 87/88/77
f 73/89/78 78/86/75 87/88/77
f 78/86/75 68/125/113 86/87/76
f 72/126/114 7/7/7 74/90/79
f 7/7/7 6/5/5 74/90/79
f 4/3/3 78/86/75 73/89/78
f 78/86/75 4/3/3 84/92/81
f 4/3/3 2/2/2 84/92/81
f 92/93/82 13/14/14 100/94/83
f 13/14/14 11/12/12 100/94/83
f 100/94/83 101/127/115 93/95/84
f 68/125/113 78/86/75 67/97/86
f 78/86/75 84/92/81 85/96/85
f 100/94/83 11/12/12 88/128/116
f 11/12/12 9/11/11 97/129/117
f 9/11/11 7/7/7 77/130/118
f 7/7/7 72/126/114 77/130/118
f 77/130/118 76/131/119 75/98/87
f 70/132/120 100/94/83 88/128/116
f 11/12/12 97/129/117 88/128/116
f 88/128/116 96/133/121 70/132/120
f 97/129/117 89/134/122 88/128/116
f 9/11/11 77/130/118 75/98/87
f 90/99/88 97/129/117 9/11/11
f 119/112/101 40/64/56 131/135/123
f 40/64/56 41/61/53 131/135/123
f 41/61/53 127/107/96 131/135/123
f 127/107/96 126/136/124 131/135/123
f 109/137/125 112/103/92 124/102/91
f 112/103/92 117/100/89 124/102/91
f 111/138/126 44/63/55 113/104/93
f 44/63/55 45/62/54 113/104/93
f 117/139/89 46/58/50 121/106/95
f 46/58/50 47/57/49 121/106/95
f 127/107/96 41/61/53 132/108/97
f 41/61/53 42/60/52 132/108/97
f 132/108/97 133/140/127 128/109/98
f 117/139/89 121/106/95 122/141/128
f 132/108/97 42/60/52 110/142/129
f 42/60/52 43/82/71 130/111/100
f 110/142/129 42/60/52 129/143/130
f 43/82/71 44/63/55 116/144/131
f 44/63/55 111/138/126 116/144/131
f 116/144/131 115/145/132 114/146/133
f 129/143/130 42/60/52 130/111/100
f 43/82/71 116/144/131 114/146/133
f 43/82/71 114/146/133 125/110/99
f 118/105/94 47/57/49 120/113/102
f 47/57/49 40/64/56 120/113/102
f 46/65/50 117/100/89 112/103/92
f 167/147/134 168/148/135 137/149/136 135/150/137
f 168/148/135 169/151/138 139/152/139 137/149/136
f 169/151/138 241/153/140 237/154/141 140/155/142 139/152/139
f 170/156/143 171/157/144 144/158/145 142/159/146
f 144/158/145 156/160/147 155/161/148 146/162/149
f 228/163/150 148/164/151 213/165/152
f 148/164/151 146/166/149 155/167/148 160/168/153
f 172/169/154 167/147/134 135/150/137 148/164/151
f 150/170/155 162/171/156 164/172/157 152/173/158
f 154/174/159 166/175/160 165/176/161 153/177/162
f 149/178/163 155/161/148 156/160/147 151/179/164
f 151/179/164 156/160/147 157/180/165 152/173/158
f 152/173/158 157/180/165 158/181/166 150/170/155
f 150/182/155 158/183/166 159/184/167 153/177/162
f 153/177/162 159/184/167 160/168/153 154/174/159
f 154/174/159 160/168/153 155/167/148 149/185/163
f 165/176/161 185/186/168 182/187/169 162/188/156
f 161/189/170 181/190/171 186/191/172 166/175/160
f 151/179/164 163/192/173 161/193/170 149/178/163
f 149/185/163 161/189/170 166/175/160 154/174/159
f 153/177/162 165/176/161 162/188/156 150/182/155
f 152/173/158 164/172/157 163/192/173 151/179/164
f 147/194/174 134/195/175 167/147/134 172/169/154
f 141/196/176 143/197/177 171/157/144 170/156/143
f 136/198/178 138/199/179 188/200/180 169/151/138 168/148/135
f 134/195/175 136/198/178 168/148/135 167/147/134
f 143/197/177 145/201/181 158/181/166 157/180/165 171/157/144
f 145/202/181 147/194/174 172/169/154 159/184/167 158/183/166
f 171/157/144 157/180/165 156/160/147 144/158/145
f 172/169/154 148/164/151 160/168/153 159/184/167
f 145/202/181 179/203/182 180/204/183 147/194/174
f 136/198/178 174/205/184 175/206/185 191/207/186 138/199/179
f 141/196/176 177/208/187 178/209/188 143/197/177
f 147/194/174 180/204/183 173/210/189 134/195/175
f 134/195/175 173/210/189 174/205/184 136/198/178
f 143/197/177 178/209/188 179/211/182 145/201/181
f 182/212/169 181/213/171 183/214/190 184/215/191
f 181/190/171 182/187/169 185/186/168 186/191/172
f 164/172/157 184/215/191 183/214/190 163/192/173
f 166/175/160 186/191/172 185/186/168 165/176/161
f 162/171/156 182/212/169 184/215/191 164/172/157
f 163/192/173 183/214/190 181/213/171 161/193/170
f 187/216/192 141/196/176 170/156/143 238/217/193 236/218/194 235/219/195 240/220/196 189/221/197 198/222/198
f 189/221/197 240/220/196 241/153/140 169/151/138 188/200/180 196/223/199 195/224/200 197/225/201
f 190/226/202 176/227/203 177/208/187 141/196/176 187/216/192 199/228/204
f 191/207/186 175/206/185 176/227/203 190/226/202 192/229/205 193/230/206 194/231/207
f 211/232/208 220/233/209 219/234/210
f 139/152/139 207/235/211 206/236/212
f 137/149/136 139/152/139 206/236/212
f 135/150/137 217/237/213 212/238/214
f 225/239/215 226/240/216 233/241/217
f 218/242/218 211/232/208 200/243/219
f 142/159/146 223/244/220 208/245/221
f 250/246/222 257/247/223 256/248/224
f 178/209/188 246/249/225 245/250/226
f 179/211/182 178/209/188 245/250/226
f 180/204/183 254/251/227 251/252/228
f 260/253/229 261/254/230 265/255/231
f 176/227/203 263/256/232 258/257/233
f 173/210/189 253/258/234 252/259/235
f 238/217/193 170/156/143 142/159/146 140/155/142 237/154/141 239/260/236
f 212/238/214 216/261/237 135/150/137
f 135/150/137 215/262/238 148/164/151
f 216/261/237 215/262/238 135/150/137
f 148/164/151 228/163/150 146/166/149
f 146/166/149 232/263/239 225/264/215
f 225/264/215 231/265/240 224/266/241
f 232/263/239 227/267/242 204/268/243
f 225/264/215 232/263/239 231/265/240
f 213/165/152 215/262/238 214/269/244
f 146/166/149 228/163/150 232/263/239
f 232/263/239 228/163/150 227/267/242
f 213/165/152 148/164/151 215/262/238
f 202/270/245 220/233/209 206/236/212
f 206/236/212 220/233/209 211/232/208
f 211/232/208 219/234/210 201/271/246
f 205/272/247 207/235/211 140/155/142
f 140/155/142 207/235/211 139/152/139
f 137/149/136 206/236/212 211/232/208
f 211/232/208 217/237/213 137/149/136
f 137/149/136 217/237/213 135/150/137
f 225/239/215 233/241/217 146/162/149
f 146/162/149 233/241/217 144/158/145
f 233/241/217 226/240/216 234/273/248
f 201/271/246 200/243/219 211/232/208
f 211/232/208 218/242/218 217/237/213
f 233/241/217 221/274/249 144/158/145
f 144/158/145 230/275/250 142/159/146
f 142/159/146 210/276/251 140/155/142
f 140/155/142 210/276/251 205/272/247
f 210/276/251 208/245/221 209/277/252
f 203/278/253 221/274/249 233/241/217
f 144/158/145 221/274/249 230/275/250
f 221/274/249 203/278/253 229/279/254
f 230/275/250 221/274/249 222/280/255
f 142/159/146 208/245/221 210/276/251
f 223/244/220 142/159/146 230/275/250
f 252/259/235 264/281/256 173/210/189
f 173/210/189 264/281/256 174/205/184
f 174/205/184 264/281/256 260/253/229
f 260/253/229 264/281/256 259/282/257
f 242/283/258 257/247/223 245/250/226
f 245/250/226 257/247/223 250/246/222
f 244/284/259 246/249/225 177/208/187
f 177/208/187 246/249/225 178/209/188
f 250/285/222 254/251/227 179/203/182
f 179/203/182 254/251/227 180/204/183
f 260/253/229 265/255/231 174/205/184
f 174/205/184 265/255/231 175/206/185
f 265/255/231 261/254/230 266/286/260
f 250/285/222 255/287/261 254/251/227
f 265/255/231 243/288/262 175/206/185
f 175/206/185 263/256/232 176/227/203
f 243/288/262 262/289/263 175/206/185
f 176/227/203 249/290/264 177/208/187
f 177/208/187 249/290/264 244/284/259
f 249/290/264 247/291/265 248/292/266
f 262/289/263 263/256/232 175/206/185
f 176/227/203 247/291/265 249/290/264
f 176/227/203 258/257/233 247/291/265
f 251/252/228 253/258/234 180/204/183
f 180/204/183 253/258/234 173/210/189
f 179/211/182 245/250/226 250/246/222
f 5/54/47 55/53/46 188/200/180 138/199/179
f 56/72/61 65/71/60 198/222/198 189/221/197
f 55/53/46 63/79/68 196/223/199 188/200/180
f 58/59/51 5/54/47 138/199/179 191/207/186
f 61/83/72 58/59/51 191/207/186 194/231/207
f 57/80/69 59/85/74 192/229/205 190/226/202
f 59/85/74 60/84/73 193/230/206 192/229/205
f 60/84/73 61/83/72 194/231/207 193/230/206
f 62/78/67 64/77/66 197/225/201 195/224/200
f 63/79/68 62/78/67 195/224/200 196/223/199
f 64/77/66 56/72/61 189/221/197 197/225/201
f 66/81/70 57/80/69 190/226/202 199/228/204
f 65/71/60 54/70/59 187/216/192 198/222/198
f 54/70/59 66/81/70 199/228/204 187/216/192
f 67/97/86 85/96/85 218/242/218 200/243/219
f 73/89/78 69/124/112 202/270/245 206/236/212
f 86/87/76 68/125/113 201/271/246 219/234/210
f 68/125/113 67/97/86 200/243/219 201/271/246
f 72/126/114 74/90/79 207/235/211 205/272/247
f 74/90/79 73/89/78 206/236/212 207/235/211
f 90/99/88 75/98/87 208/245/221 223/244/220
f 75/98/87 76/131/119 209/277/252 208/245/221
f 76/131/119 77/130/118 210/276/251 209/277/252
f 77/130/118 72/126/114 205/272/247 210/276/251
f 80/18/18 95/17/17 228/163/150 213/165/152
f 81/123/111 80/18/18 213/165/152 214/269/244
f 82/116/105 81/123/111 214/269/244 215/262/238
f 83/115/104 82/116/105 215/262/238 216/261/237
f 79/91/80 83/115/104 216/261/237 212/238/214
f 84/92/81 79/91/80 212/238/214 217/237/213
f 85/96/85 84/92/81 217/237/213 218/242/218
f 87/88/77 86/87/76 219/234/210 220/233/209
f 69/124/112 87/88/77 220/233/209 202/270/245
f 96/133/121 88/128/116 221/274/249 229/279/254
f 88/128/116 89/134/122 222/280/255 221/274/249
f 97/129/117 90/99/88 223/244/220 230/275/250
f 98/120/108 91/119/107 224/266/241 231/265/240
f 91/119/107 92/117/82 225/264/215 224/266/241
f 92/93/82 93/95/84 226/240/216 225/239/215
f 94/122/110 71/121/109 204/268/243 227/267/242
f 95/17/17 94/122/110 227/267/242 228/163/150
f 70/132/120 96/133/121 229/279/254 203/278/253
f 89/134/122 97/129/117 230/275/250 222/280/255
f 71/121/109 99/118/106 232/263/239 204/268/243
f 99/118/106 98/120/108 231/265/240 232/263/239
f 100/94/83 70/132/120 203/278/253 233/241/217
f 93/95/84 101/127/115 234/273/248 226/240/216
f 101/127/115 100/94/83 233/241/217 234/273/248
f 105/76/65 103/75/64 236/218/194 238/217/193
f 104/8/8 106/114/103 239/260/236 237/154/141
f 108/9/9 104/8/8 237/154/141 241/153/140
f 102/74/63 107/73/62 240/220/196 235/219/195
f 103/75/64 102/74/63 235/219/195 236/218/194
f 112/103/92 109/137/125 242/283/258 245/250/226
f 106/114/103 105/76/65 238/217/193 239/260/236
f 111/138/126 113/104/93 246/249/225 244/284/259
f 113/104/93 112/103/92 245/250/226 246/249/225
f 125/110/99 114/146/133 247/291/265 258/257/233
f 114/146/133 115/145/132 248/292/266 247/291/265
f 115/145/132 116/144/131 249/290/264 248/292/266
f 116/144/131 111/138/126 244/284/259 249/290/264
f 120/113/102 119/112/101 252/259/235 253/258/234
f 118/105/94 120/113/102 253/258/234 251/252/228
f 121/106/95 118/105/94 251/252/228 254/251/227
f 122/141/128 121/106/95 254/251/227 255/287/261
f 124/102/91 123/101/90 256/248/224 257/247/223
f 109/137/125 124/102/91 257/247/223 242/283/258
f 130/111/100 125/110/99 258/257/233 263/256/232
f 126/136/124 127/107/96 260/253/229 259/282/257
f 127/107/96 128/109/98 261/254/230 260/253/229
f 110/142/129 129/143/130 262/289/263 243/288/262
f 132/108/97 110/142/129 243/288/262 265/255/231
f 128/109/98 133/140/127 266/286/260 261/254/230
f 133/140/127 132/108/97 265/255/231 266/286/260
f 107/73/62 108/9/9 241/153/140 240/220/196
f 119/112/101 131/135/123 264/281/256 252/259/235
f 131/135/123 126/136/124 259/282/257 264/281/256
f 123/101/90 117/100/89 250/246/222 256/248/224
f 117/139/89 122/141/128 255/287/261 250/285/222
f 129/143/130 130/111/100 263/256/232 262/289/263
o Timber_2_Cylinder.007
v 3.229334 1.713517 -1.188462
v 3.121552 2.549422 -0.574787
v 3.099367 2.674449 0.451739
v 2.980549 2.073514 1.251069
v 3.062986 1.013463 1.394753
v 3.054308 0.207080 0.739679
v 3.085747 0.080462 -0.287420
v 3.144445 0.706822 -1.085228
v 4.281825 2.519975 0.568915
v 3.588220 0.988369 1.394198
v 3.679514 0.172384 0.740305
v 3.452393 0.641680 1.107936
v 3.597652 1.733825 1.279894
v 3.749323 1.429659 1.346362
v 3.617017 1.350592 1.356400
v 3.775985 0.037505 -0.287800
v 3.646742 0.673570 -1.086998
v 3.815329 1.492558 -1.211359
v 4.001516 1.155298 -1.142130
v 3.739166 0.392295 -0.730727
v 3.943700 0.250791 -0.570443
v 3.977787 0.104416 0.354809
v 3.775030 2.025052 1.252507
v 4.555646 2.308274 -0.721601
v 4.305223 2.489383 -0.588095
v 4.525420 2.488070 -0.472621
v 4.332234 2.284253 0.905297
v 3.977058 2.075580 1.174381
v 4.450176 1.888438 -1.069643
v 4.148730 2.627384 0.439687
v 4.555037 2.581088 0.300747
v -3.308187 0.712724 -1.038940
v -3.266963 0.084793 -0.242116
v -3.221239 0.206782 0.781643
v -3.197799 1.007231 1.432632
v -3.210375 2.017247 1.329510
v -3.251598 2.645178 0.532686
v -3.297323 2.523189 -0.491073
v -3.320762 1.722740 -1.142062
v 1.669214 0.121593 -0.281880
v 0.130522 0.035811 -0.292870
v -1.534685 0.066547 -0.212433
v 1.629122 0.246970 0.742146
v 0.137220 0.160596 0.731551
v -1.527987 0.191333 0.811987
v 1.543357 1.047271 1.388853
v 0.096707 0.961455 1.381195
v -1.568500 0.992191 1.461632
v 1.560842 1.750678 -1.192926
v 0.016544 1.667997 -1.197660
v -1.648663 1.698733 -1.117223
v 1.475860 2.550844 -0.546268
v -0.023969 2.468855 -0.548015
v -1.689175 2.499592 -0.467578
v 1.435768 2.676222 0.477758
v -0.017270 2.593640 0.476405
v -1.682477 2.624377 0.556842
v -1.584671 0.690933 -1.011539
v 0.080537 0.660196 -1.091975
v 1.640933 0.744449 -1.083413
v 1.464050 2.053366 1.279291
v 0.032715 1.969255 1.275510
v -1.632492 1.999991 1.355947
v -4.458208 0.236992 0.744450
v -3.913047 1.923895 1.293735
v -4.036204 2.599010 0.516705
v -3.784005 2.303882 1.001585
v -3.856674 1.150920 1.380220
v -4.040207 1.468242 1.343068
v -3.917262 1.555029 1.340748
v -4.103284 2.485924 -0.523567
v -3.908566 1.741941 -1.167833
v -4.013667 0.925438 -1.138846
v -4.219338 1.246639 -1.138750
v -4.029037 2.068932 -0.880916
v -4.242555 2.218635 -0.757916
v -4.317598 2.571983 0.129332
v -4.021688 0.870732 1.317167
v -4.695065 0.183378 -0.534673
v -4.444177 0.052899 -0.368400
v -4.662076 0.059480 -0.262668
v -4.534157 0.519881 1.021616
v -4.211991 0.793730 1.247664
v -4.608871 0.527990 -0.943040
v -4.317410 0.120386 0.643400
v -4.710594 0.110024 0.493673
v 3.235047 1.605570 -1.026690
v 3.127200 2.360083 -0.468339
v 3.102777 2.479095 0.460679
v 2.979420 1.996439 1.125679
v 3.059422 1.120909 1.232874
v 3.050858 0.396938 0.634259
v 3.084420 0.275203 -0.294751
v 3.146798 0.776943 -0.955931
v 4.280227 2.352684 0.524081
v 3.584455 1.089369 1.231015
v 3.677982 0.367537 0.646212
v 3.449186 0.806001 0.972353
v 3.591731 1.761961 1.116553
v 3.753260 1.446380 1.185119
v 3.614862 1.377562 1.193196
v 3.777052 0.230251 -0.289913
v 3.650924 0.730760 -0.951020
v 3.826058 1.437045 -1.045463
v 4.010577 1.126135 -0.978748
v 3.741408 0.552481 -0.676480
v 3.946445 0.410304 -0.515391
v 3.977616 0.306227 0.287021
v 3.772589 1.902213 1.159614
v 4.557558 2.143755 -0.586240
v 4.307434 2.298851 -0.484024
v 4.525102 2.286275 -0.405019
v 4.332389 2.119512 0.856835
v 3.978093 1.915464 1.119849
v 4.453894 1.732185 -0.928073
v 4.148921 2.430711 0.453263
v 4.554620 2.379293 0.368309
v -3.314796 0.782588 -0.909567
v -3.276920 0.279640 -0.249596
v -3.228508 0.396369 0.675612
v -3.198844 1.116408 1.271200
v -3.205844 1.948286 1.199574
v -3.244049 2.449708 0.541869
v -3.290181 2.332565 -0.386924
v -3.319549 1.611719 -0.981069
v 1.661205 0.316672 -0.289912
v 0.122814 0.230500 -0.299739
v -1.538795 0.261875 -0.221237
v 1.620879 0.436621 0.636245
v 0.127397 0.351033 0.627129
v -1.534613 0.380975 0.706058
v 1.538054 1.154912 1.227011
v 0.088618 1.072909 1.220288
v -1.574942 1.101424 1.300158
v 1.566362 1.640537 -1.031658
v 0.024638 1.559812 -1.035983
v -1.642243 1.587993 -0.956107
v 1.485324 2.360961 -0.440816
v -0.014116 2.279413 -0.441803
v -1.682765 2.309229 -0.362950
v 1.445284 2.481174 0.485794
v -0.009588 2.398303 0.485192
v -1.678528 2.429816 0.563386
v -1.582584 0.762678 -0.883132
v 0.080789 0.732531 -0.963865
v 1.638498 0.814372 -0.953966
v 1.467121 1.979733 1.151916
v 0.032312 1.898663 1.146435
v -1.634419 1.929370 1.226914
v -4.460888 0.408727 0.615471
v -3.899620 1.895786 1.145840
v -4.025030 2.397490 0.551900
v -3.771756 2.151516 0.937997
v -3.849537 1.219673 1.214387
v -4.036867 1.511807 1.177913
v -3.912410 1.595675 1.175950
v -4.095455 2.295728 -0.418638
v -3.909739 1.634362 -1.006134
v -4.023104 0.909590 -0.978117
v -4.227031 1.191176 -0.973092
v -4.024862 1.902406 -0.747130
v -4.238229 2.051658 -0.624510
v -4.316667 2.369969 0.195766
v -4.026010 1.029046 1.177004
v -4.703281 0.339380 -0.475084
v -4.456522 0.244680 -0.367835
v -4.669372 0.262135 -0.323989
v -4.538312 0.688581 0.889733
v -4.217779 0.958766 1.112598
v -4.620789 0.671848 -0.870141
v -4.324373 0.315442 0.548664
v -4.717793 0.312672 0.432313
vt 0.911376 0.538381
vt 0.912427 0.580773
vt 0.873500 0.565858
vt 0.979633 0.540437
vt 0.555066 0.547560
vt 0.553895 0.581625
vt 0.531079 0.586601
vt 0.671745 0.628000
vt 0.739944 0.616341
vt 0.679223 0.642785
vt 0.790300 0.535991
vt 0.791327 0.589413
vt 0.786559 0.603251
vt 0.606284 0.555008
vt 0.595285 0.594533
vt 0.578587 0.606377
vt 0.621376 0.637722
vt 0.673291 0.548410
vt 0.657428 0.644912
vt 0.980860 0.587223
vt 0.938567 0.600957
vt 0.843813 0.575426
vt 0.843036 0.539929
vt 0.502741 0.587596
vt 0.504212 0.541079
vt 0.740324 0.545788
vt 0.730418 0.643988
vt 0.520391 0.599847
vt 0.748220 0.625093
vt 0.769277 0.627862
vt 0.825439 0.577920
vt 0.821315 0.586974
vt 0.806427 0.577142
vt 0.556592 0.445288
vt 0.505396 0.445271
vt 0.978030 0.444382
vt 0.909946 0.441359
vt 0.841971 0.437350
vt 0.791448 0.434712
vt 0.741298 0.434964
vt 0.674513 0.438247
vt 0.607442 0.442413
vt 0.608154 0.111133
vt 0.607167 0.225613
vt 0.555534 0.227681
vt 0.556536 0.109306
vt 0.604546 0.338515
vt 0.554518 0.340455
vt 0.675712 0.115548
vt 0.675460 0.223816
vt 0.671992 0.336743
vt 0.742018 0.119885
vt 0.742562 0.223316
vt 0.740652 0.336344
vt 0.791000 0.122116
vt 0.792313 0.224323
vt 0.792804 0.337025
vt 0.840341 0.119932
vt 0.841428 0.226526
vt 0.844832 0.338367
vt 0.906703 0.114579
vt 0.907789 0.227650
vt 0.913026 0.339571
vt 0.973971 0.109851
vt 0.975177 0.226872
vt 0.980860 0.339615
vt 0.504013 0.228482
vt 0.505643 0.111118
vt 0.504172 0.341242
vt 0.742243 0.067204
vt 0.770609 0.082437
vt 0.609012 0.071257
vt 0.637927 0.064610
vt 0.980182 0.029850
vt 0.914594 0.040016
vt 0.972855 0.015256
vt 0.848864 0.063998
vt 0.854978 0.050703
vt 0.566781 0.061660
vt 0.583909 0.048976
vt 0.545851 0.020811
vt 0.509182 0.031452
vt 0.519318 0.014676
vt 0.674118 0.061327
vt 0.717623 0.047761
vt 0.793985 0.075112
vt 0.923525 0.013152
vt 0.650997 0.050847
vt 0.904046 0.031116
vt 0.877428 0.027522
vt 0.813818 0.073112
vt 0.818056 0.064431
vt 0.833785 0.074842
vt 0.911376 0.538381
vt 0.873500 0.565858
vt 0.912427 0.580773
vt 0.979633 0.540437
vt 0.555066 0.547560
vt 0.531079 0.586601
vt 0.553895 0.581625
vt 0.671745 0.628000
vt 0.679223 0.642785
vt 0.739944 0.616341
vt 0.790300 0.535991
vt 0.786559 0.603251
vt 0.791327 0.589413
vt 0.606284 0.555008
vt 0.578587 0.606377
vt 0.595285 0.594533
vt 0.621376 0.637722
vt 0.673291 0.548410
vt 0.657428 0.644912
vt 0.938567 0.600957
vt 0.980860 0.587223
vt 0.843813 0.575426
vt 0.843036 0.539929
vt 0.502741 0.587596
vt 0.504212 0.541079
vt 0.740324 0.545788
vt 0.730418 0.643988
vt 0.520391 0.599847
vt 0.748220 0.625093
vt 0.769277 0.627862
vt 0.825439 0.577920
vt 0.806427 0.577142
vt 0.821315 0.586974
vt 0.556592 0.445288
vt 0.505396 0.445271
vt 0.978030 0.444382
vt 0.909946 0.441359
vt 0.841971 0.437350
vt 0.791448 0.434712
vt 0.741298 0.434964
vt 0.674513 0.438247
vt 0.607442 0.442413
vt 0.608154 0.111133
vt 0.556536 0.109306
vt 0.555534 0.227681
vt 0.607167 0.225613
vt 0.554518 0.340455
vt 0.604546 0.338515
vt 0.675712 0.115548
vt 0.675460 0.223816
vt 0.671992 0.336743
vt 0.742018 0.119885
vt 0.742562 0.223316
vt 0.740652 0.336344
vt 0.791000 0.122116
vt 0.792313 0.224323
vt 0.792804 0.337025
vt 0.840341 0.119932
vt 0.841428 0.226526
vt 0.844832 0.338367
vt 0.906703 0.114579
vt 0.907789 0.227650
vt 0.913026 0.339571
vt 0.973971 0.109851
vt 0.975177 0.226872
vt 0.980860 0.339615
vt 0.505643 0.111118
vt 0.504013 0.228482
vt 0.504172 0.341242
vt 0.770609 0.082437
vt 0.742243 0.067204
vt 0.637927 0.064610
vt 0.609012 0.071257
vt 0.980182 0.029850
vt 0.972855 0.015256
vt 0.914594 0.040016
vt 0.854978 0.050703
vt 0.848864 0.063998
vt 0.583909 0.048976
vt 0.566781 0.061660
vt 0.545851 0.020811
vt 0.509182 0.031452
vt 0.519318 0.014676
vt 0.717623 0.047761
vt 0.674118 0.061327
vt 0.793985 0.075112
vt 0.923525 0.013152
vt 0.650997 0.050847
vt 0.904046 0.031116
vt 0.877428 0.027522
vt 0.813818 0.073112
vt 0.833785 0.074842
vt 0.818056 0.064431
vn -0.0358 -0.8736 0.4853
vn 0.5030 -0.6146 0.6076
vn 0.5832 -0.4738 0.6599
vn -0.0427 -0.9619 -0.2701
vn -0.0233 -0.4803 -0.8768
vn 0.4272 -0.5145 -0.7434
vn 0.4595 -0.4653 -0.7565
vn 0.2889 0.8217 -0.4912
vn 0.2428 0.9191 0.3102
vn 0.6877 0.4512 -0.5687
vn 0.0183 0.5079 0.8612
vn 0.2807 0.2091 0.9367
vn 0.3660 0.2431 0.8983
vn -0.0055 0.2673 -0.9636
vn 0.2733 -0.1153 -0.9550
vn 0.8238 -0.0529 -0.5643
vn 0.6376 0.0432 -0.7691
vn 0.0140 0.8689 -0.4947
vn 0.7709 0.5984 -0.2182
vn 0.4835 -0.8454 -0.2270
vn 0.7736 -0.5766 0.2628
vn 0.6698 -0.3183 0.6709
vn -0.0122 -0.2726 0.9620
vn 0.0239 0.9653 0.2599
vn 0.6943 0.6291 0.3494
vn 0.7999 -0.4596 -0.3859
vn 0.7454 0.6655 -0.0362
vn 0.7435 0.4044 0.5326
vn 0.5416 -0.1757 0.8220
vn 0.7601 -0.2331 0.6066
vn 0.5341 0.1266 0.8358
vn 0.0089 -0.4777 -0.8784
vn 0.0132 -0.9630 -0.2690
vn 0.0114 -0.8716 0.4901
vn 0.0041 -0.2697 0.9629
vn -0.0119 0.4940 0.8694
vn -0.0266 0.9639 0.2650
vn -0.0236 0.8739 -0.4855
vn -0.0058 0.2854 -0.9584
vn 0.0313 0.2907 -0.9563
vn -0.0108 0.2868 -0.9579
vn -0.0220 -0.4877 -0.8727
vn 0.0360 -0.4781 -0.8776
vn -0.0269 0.2726 -0.9617
vn -0.0098 -0.4900 -0.8717
vn -0.0005 0.8809 -0.4732
vn 0.0068 0.8784 -0.4779
vn -0.0274 0.8695 -0.4931
vn -0.0133 0.9663 0.2571
vn 0.0192 0.9613 0.2748
vn -0.0118 0.9645 0.2637
vn -0.0274 0.4747 0.8797
vn 0.0205 0.4821 0.8759
vn 0.0104 0.4813 0.8765
vn -0.0313 -0.2793 0.9597
vn 0.0113 -0.2810 0.9596
vn 0.0261 -0.2929 0.9557
vn 0.0019 -0.8710 0.4912
vn -0.0042 -0.8715 0.4903
vn 0.0270 -0.8790 0.4761
vn 0.0284 -0.9619 -0.2716
vn -0.0185 -0.9652 -0.2606
vn 0.0128 -0.9625 -0.2709
vn -0.5116 0.7548 0.4105
vn -0.5499 0.5862 0.5949
vn -0.4796 0.3130 -0.8198
vn -0.4909 0.2626 -0.8307
vn -0.1632 -0.9189 -0.3591
vn -0.2516 -0.8581 0.4476
vn -0.6350 -0.6727 -0.3797
vn -0.3437 -0.1390 0.9287
vn -0.4274 -0.0473 0.9028
vn -0.2822 -0.1292 -0.9506
vn -0.8134 0.0748 -0.5769
vn -0.6533 -0.1972 -0.7309
vn -0.7441 -0.6671 -0.0355
vn -0.5444 0.7458 -0.3840
vn -0.7793 0.6265 0.0133
vn -0.7390 0.3194 0.5931
vn -0.6690 -0.4941 0.5552
vn -0.7911 0.2989 -0.5336
vn -0.6979 -0.7002 0.1504
vn -0.7488 -0.3005 0.5907
vn -0.4530 0.3509 0.8195
vn -0.8381 0.0994 0.5363
vn -0.5060 0.0311 0.8619
vn 0.0322 0.8730 -0.4866
vn 0.6141 0.4997 -0.6109
vn 0.6650 0.7411 0.0926
vn 0.0376 0.9644 0.2619
vn 0.0136 0.4819 0.8761
vn 0.6186 0.7556 0.2151
vn 0.7729 0.1911 0.6050
vn 0.3055 -0.8556 0.4179
vn 0.6161 -0.7269 -0.3034
vn 0.3185 -0.8977 -0.3045
vn -0.0275 -0.5082 -0.8608
vn 0.3840 -0.9004 0.2044
vn 0.4315 -0.8904 -0.1447
vn -0.0005 -0.2753 0.9614
vn 0.7685 -0.0702 0.6360
vn 0.5727 -0.0323 0.8191
vn 0.6245 -0.7548 0.2004
vn -0.0156 -0.8682 0.4960
vn 0.7170 -0.2506 0.6504
vn 0.7731 0.6342 0.0017
vn 0.7147 0.6238 0.3163
vn 0.7884 0.0073 -0.6151
vn 0.0037 0.2825 -0.9593
vn -0.0291 -0.9670 -0.2530
vn 0.6003 -0.5397 0.5902
vn 0.8007 0.5698 0.1847
vn 0.6298 -0.4292 -0.6474
vn 0.7429 -0.6669 -0.0582
vn 0.3796 -0.4248 -0.8218
vn 0.4700 -0.0855 -0.8785
vn 0.8042 -0.2454 -0.5412
vn -0.0089 0.4780 0.8783
vn -0.0131 0.9662 0.2574
vn -0.0113 0.8719 -0.4895
vn -0.0042 0.2815 -0.9595
vn 0.0118 -0.4941 -0.8693
vn 0.0266 -0.9668 -0.2540
vn 0.0236 -0.8737 0.4858
vn 0.0059 -0.2958 0.9552
vn -0.0243 -0.3010 0.9533
vn -0.0285 0.4777 0.8780
vn 0.0220 0.4875 0.8728
vn 0.0105 -0.2979 0.9545
vn 0.0098 0.4899 0.8717
vn 0.0270 -0.2846 0.9583
vn 0.0044 -0.8806 0.4739
vn -0.0067 -0.8782 0.4782
vn 0.0274 -0.8698 0.4925
vn 0.0185 -0.9686 -0.2479
vn -0.0190 -0.9646 -0.2628
vn 0.0120 -0.9675 -0.2526
vn 0.0339 -0.4745 -0.8796
vn -0.0204 -0.4822 -0.8758
vn -0.0105 -0.4816 -0.8763
vn 0.0378 0.2892 -0.9565
vn -0.0110 0.2923 -0.9563
vn -0.0260 0.3034 -0.9525
vn 0.0016 0.8708 -0.4916
vn 0.0042 0.8718 -0.4899
vn -0.0269 0.8787 -0.4765
vn -0.0251 0.9646 0.2626
vn 0.0183 0.9681 0.2499
vn -0.0130 0.9657 0.2593
vn -0.6114 -0.5961 -0.5204
vn -0.6494 -0.6861 0.3279
vn -0.5677 -0.7421 0.3562
vn -0.6934 -0.0617 0.7178
vn -0.3557 0.8762 0.3253
vn -0.6164 0.5345 -0.5783
vn -0.3594 0.8649 -0.3503
vn -0.4713 0.8791 -0.0702
vn -0.4844 0.8413 -0.2399
vn -0.7977 -0.0768 0.5981
vn -0.5463 0.2982 0.7826
vn -0.6289 0.7697 0.1093
vn -0.7316 0.3663 0.5750
vn -0.7752 -0.5842 0.2404
vn -0.6965 -0.6160 0.3681
vn -0.7170 -0.1218 -0.6863
vn -0.6725 0.6643 0.3262
vn -0.7755 -0.5555 0.3000
vn -0.6382 0.2321 -0.7340
vn -0.7647 0.5863 -0.2673
vn -0.5178 0.1700 -0.8384
vn -0.4766 -0.0690 -0.8764
vn -0.7659 0.2364 -0.5979
g Timber_2_Cylinder.007_Timber_Textrue
usemtl Timber_Textrue
s 1
f 272/293/267 277/294/268 278/295/269
f 273/296/270 277/294/268 272/293/267
f 274/297/271 283/298/272 286/299/273
f 291/300/274 296/301/275 292/302/276
f 270/303/277 289/304/278 294/305/279
f 267/306/280 284/307/281 285/308/282
f 284/307/281 267/306/280 295/309/283
f 267/306/280 268/310/284 295/309/283
f 268/310/284 291/300/274 295/309/283
f 291/300/274 290/311/285 295/309/283
f 277/294/268 282/312/286 288/313/287
f 276/314/288 271/315/289 278/295/269
f 271/315/289 272/293/267 278/295/269
f 282/316/286 273/317/270 286/299/273
f 273/317/270 274/297/271 286/299/273
f 291/300/274 268/310/284 296/301/275
f 268/310/284 269/318/290 296/301/275
f 296/301/275 297/319/291 292/302/276
f 282/316/286 286/299/273 287/320/292
f 296/301/275 269/318/290 275/321/293
f 269/318/290 270/303/277 294/305/279
f 275/321/293 269/318/290 293/322/294
f 270/303/277 271/315/289 281/323/295
f 271/315/289 276/314/288 281/323/295
f 281/323/295 280/324/296 279/325/297
f 293/322/294 269/318/290 294/305/279
f 270/303/277 281/323/295 279/325/297
f 270/303/277 279/325/297 289/304/278
f 283/298/272 274/297/271 285/308/282
f 274/297/271 267/306/280 285/308/282
f 273/296/270 282/312/286 277/294/268
f 326/326/298 274/297/271 273/317/270 306/327/299
f 306/328/299 273/296/270 272/293/267 309/329/300
f 309/329/300 272/293/267 271/315/289 312/330/301
f 312/330/301 271/315/289 270/303/277 327/331/302
f 327/331/302 270/303/277 269/318/290 321/332/303
f 321/332/303 269/318/290 268/310/284 318/333/304
f 318/333/304 268/310/284 267/306/280 315/334/305
f 315/334/305 267/306/280 274/297/271 326/326/298
f 305/335/306 317/336/307 324/337/308 298/338/309
f 317/336/307 316/339/310 325/340/311 324/337/308
f 316/339/310 315/334/305 326/326/298 325/340/311
f 304/341/312 320/342/313 317/336/307 305/335/306
f 320/342/313 319/343/314 316/339/310 317/336/307
f 319/343/314 318/333/304 315/334/305 316/339/310
f 303/344/315 323/345/316 320/342/313 304/341/312
f 323/345/316 322/346/317 319/343/314 320/342/313
f 322/346/317 321/332/303 318/333/304 319/343/314
f 302/347/318 329/348/319 323/345/316 303/344/315
f 329/348/319 328/349/320 322/346/317 323/345/316
f 328/349/320 327/331/302 321/332/303 322/346/317
f 301/350/321 314/351/322 329/348/319 302/347/318
f 314/351/322 313/352/323 328/349/320 329/348/319
f 313/352/323 312/330/301 327/331/302 328/349/320
f 300/353/324 311/354/325 314/351/322 301/350/321
f 311/354/325 310/355/326 313/352/323 314/351/322
f 310/355/326 309/329/300 312/330/301 313/352/323
f 299/356/327 308/357/328 311/354/325 300/353/324
f 308/357/328 307/358/329 310/355/326 311/354/325
f 307/358/329 306/328/299 309/329/300 310/355/326
f 298/338/309 324/337/308 308/359/328 299/360/327
f 324/337/308 325/340/311 307/361/329 308/359/328
f 325/340/311 326/326/298 306/327/299 307/361/329
f 303/344/315 332/362/330 333/363/331
f 304/341/312 332/362/330 303/344/315
f 305/335/306 338/364/332 341/365/333
f 346/366/334 351/367/335 347/368/336
f 301/350/321 344/369/337 349/370/338
f 298/338/309 339/371/339 340/372/340
f 339/371/339 298/338/309 350/373/341
f 298/338/309 299/360/327 350/373/341
f 299/360/327 346/374/334 350/373/341
f 346/374/334 345/375/342 350/373/341
f 332/362/330 337/376/343 343/377/344
f 331/378/345 302/347/318 333/363/331
f 302/347/318 303/344/315 333/363/331
f 337/376/343 304/341/312 341/365/333
f 304/341/312 305/335/306 341/365/333
f 346/366/334 299/356/327 351/367/335
f 299/356/327 300/353/324 351/367/335
f 351/367/335 352/379/346 347/368/336
f 337/376/343 341/365/333 342/380/347
f 351/367/335 300/353/324 330/381/348
f 300/353/324 301/350/321 349/370/338
f 330/381/348 300/353/324 348/382/349
f 301/350/321 302/347/318 336/383/350
f 302/347/318 331/378/345 336/383/350
f 336/383/350 335/384/351 334/385/352
f 348/382/349 300/353/324 349/370/338
f 301/350/321 336/383/350 334/385/352
f 301/350/321 334/385/352 344/369/337
f 338/364/332 305/335/306 340/372/340
f 305/335/306 298/338/309 340/372/340
f 304/341/312 337/376/343 332/362/330
f 358/386/353 364/387/354 363/388/355
f 359/389/356 358/386/353 363/388/355
f 360/390/357 372/391/358 369/392/359
f 377/393/360 378/394/361 382/395/362
f 356/396/363 380/397/364 375/398/365
f 353/399/366 371/400/367 370/401/368
f 370/401/368 381/402/369 353/399/366
f 353/399/366 381/402/369 354/403/370
f 354/403/370 381/402/369 377/393/360
f 377/393/360 381/402/369 376/404/371
f 363/388/355 374/405/372 368/406/373
f 362/407/374 364/387/354 357/408/375
f 357/408/375 364/387/354 358/386/353
f 368/409/373 372/391/358 359/410/356
f 359/410/356 372/391/358 360/390/357
f 377/393/360 382/395/362 354/403/370
f 354/403/370 382/395/362 355/411/376
f 382/395/362 378/394/361 383/412/377
f 368/409/373 373/413/378 372/391/358
f 382/395/362 361/414/379 355/411/376
f 355/411/376 380/397/364 356/396/363
f 361/414/379 379/415/380 355/411/376
f 356/396/363 367/416/381 357/408/375
f 357/408/375 367/416/381 362/407/374
f 367/416/381 365/417/382 366/418/383
f 379/415/380 380/397/364 355/411/376
f 356/396/363 365/417/382 367/416/381
f 356/396/363 375/398/365 365/417/382
f 369/392/359 371/400/367 360/390/357
f 360/390/357 371/400/367 353/399/366
f 359/389/356 363/388/355 368/406/373
f 412/419/384 392/420/385 359/410/356 360/390/357
f 392/421/385 395/422/386 358/386/353 359/389/356
f 395/422/386 398/423/387 357/408/375 358/386/353
f 398/423/387 413/424/388 356/396/363 357/408/375
f 413/424/388 407/425/389 355/411/376 356/396/363
f 407/425/389 404/426/390 354/403/370 355/411/376
f 404/426/390 401/427/391 353/399/366 354/403/370
f 401/427/391 412/419/384 360/390/357 353/399/366
f 391/428/392 384/429/393 410/430/394 403/431/395
f 403/431/395 410/430/394 411/432/396 402/433/397
f 402/433/397 411/432/396 412/419/384 401/427/391
f 390/434/398 391/428/392 403/431/395 406/435/399
f 406/435/399 403/431/395 402/433/397 405/436/400
f 405/436/400 402/433/397 401/427/391 404/426/390
f 389/437/401 390/434/398 406/435/399 409/438/402
f 409/438/402 406/435/399 405/436/400 408/439/403
f 408/439/403 405/436/400 404/426/390 407/425/389
f 388/440/404 389/437/401 409/438/402 415/441/405
f 415/441/405 409/438/402 408/439/403 414/442/406
f 414/442/406 408/439/403 407/425/389 413/424/388
f 387/443/407 388/440/404 415/441/405 400/444/408
f 400/444/408 415/441/405 414/442/406 399/445/409
f 399/445/409 414/442/406 413/424/388 398/423/387
f 386/446/410 387/443/407 400/444/408 397/447/411
f 397/447/411 400/444/408 399/445/409 396/448/412
f 396/448/412 399/445/409 398/423/387 395/422/386
f 385/449/413 386/446/410 397/447/411 394/450/414
f 394/450/414 397/447/411 396/448/412 393/451/415
f 393/451/415 396/448/412 395/422/386 392/421/385
f 384/429/393 385/452/413 394/453/414 410/430/394
f 410/430/394 394/453/414 393/454/415 411/432/396
f 411/432/396 393/454/415 392/420/385 412/419/384
f 389/437/401 419/455/416 418/456/417
f 390/434/398 389/437/401 418/456/417
f 391/428/392 427/457/418 424/458/419
f 432/459/420 433/460/421 437/461/422
f 387/443/407 435/462/423 430/463/424
f 384/429/393 426/464/425 425/465/426
f 425/465/426 436/466/427 384/429/393
f 384/429/393 436/466/427 385/452/413
f 385/452/413 436/466/427 432/467/420
f 432/467/420 436/466/427 431/468/428
f 418/456/417 429/469/429 423/470/430
f 417/471/431 419/455/416 388/440/404
f 388/440/404 419/455/416 389/437/401
f 423/470/430 427/457/418 390/434/398
f 390/434/398 427/457/418 391/428/392
f 432/459/420 437/461/422 385/449/413
f 385/449/413 437/461/422 386/446/410
f 437/461/422 433/460/421 438/472/432
f 423/470/430 428/473/433 427/457/418
f 437/461/422 416/474/434 386/446/410
f 386/446/410 435/462/423 387/443/407
f 416/474/434 434/475/435 386/446/410
f 387/443/407 422/476/436 388/440/404
f 388/440/404 422/476/436 417/471/431
f 422/476/436 420/477/437 421/478/438
f 434/475/435 435/462/423 386/446/410
f 387/443/407 420/477/437 422/476/436
f 387/443/407 430/463/424 420/477/437
f 424/458/419 426/464/425 391/428/392
f 391/428/392 426/464/425 384/429/393
f 390/434/398 418/456/417 423/470/430
f 276/314/288 278/295/269 364/387/354 362/407/374
f 278/295/269 277/294/268 363/388/355 364/387/354
f 289/304/278 279/325/297 365/417/382 375/398/365
f 279/325/297 280/324/296 366/418/383 365/417/382
f 280/324/296 281/323/295 367/416/381 366/418/383
f 281/323/295 276/314/288 362/407/374 367/416/381
f 285/308/282 284/307/281 370/401/368 371/400/367
f 283/298/272 285/308/282 371/400/367 369/392/359
f 286/299/273 283/298/272 369/392/359 372/391/358
f 287/320/292 286/299/273 372/391/358 373/413/378
f 294/305/279 289/304/278 375/398/365 380/397/364
f 290/311/285 291/300/274 377/393/360 376/404/371
f 291/300/274 292/302/276 378/394/361 377/393/360
f 275/321/293 293/322/294 379/415/380 361/414/379
f 296/301/275 275/321/293 361/414/379 382/395/362
f 292/302/276 297/319/291 383/412/377 378/394/361
f 297/319/291 296/301/275 382/395/362 383/412/377
f 284/307/281 295/309/283 381/402/369 370/401/368
f 295/309/283 290/311/285 376/404/371 381/402/369
f 277/294/268 288/313/287 374/405/372 363/388/355
f 288/313/287 282/312/286 368/406/373 374/405/372
f 282/316/286 287/320/292 373/413/378 368/409/373
f 293/322/294 294/305/279 380/397/364 379/415/380
f 331/378/345 333/363/331 419/455/416 417/471/431
f 333/363/331 332/362/330 418/456/417 419/455/416
f 344/369/337 334/385/352 420/477/437 430/463/424
f 334/385/352 335/384/351 421/478/438 420/477/437
f 335/384/351 336/383/350 422/476/436 421/478/438
f 336/383/350 331/378/345 417/471/431 422/476/436
f 340/372/340 339/371/339 425/465/426 426/464/425
f 338/364/332 340/372/340 426/464/425 424/458/419
f 341/365/333 338/364/332 424/458/419 427/457/418
f 342/380/347 341/365/333 427/457/418 428/473/433
f 349/370/338 344/369/337 430/463/424 435/462/423
f 345/375/342 346/374/334 432/467/420 431/468/428
f 346/366/334 347/368/336 433/460/421 432/459/420
f 330/381/348 348/382/349 434/475/435 416/474/434
f 351/367/335 330/381/348 416/474/434 437/461/422
f 347/368/336 352/379/346 438/472/432 433/460/421
f 352/379/346 351/367/335 437/461/422 438/472/432
f 339/371/339 350/373/341 436/466/427 425/465/426
f 350/373/341 345/375/342 431/468/428 436/466/427
f 332/362/330 343/377/344 429/469/429 418/456/417
f 343/377/344 337/376/343 423/470/430 429/469/429
f 337/376/343 342/380/347 428/473/433 423/470/430
f 348/382/349 349/370/338 435/462/423 434/475/435
o Timber_3_Cylinder.022
v 14.361006 0.172056 -1.446111
v 14.252347 1.122677 -1.032030
v 14.219728 1.448835 -0.060576
v 14.087402 1.059430 0.851826
v 14.160591 0.056332 1.225441
v 15.399445 1.339490 0.104770
v 14.685604 0.029337 1.236992
v 14.701683 0.731526 0.962163
v 14.850405 0.448655 1.095598
v 14.717429 0.374317 1.121065
v 14.881448 1.008847 0.873823
v 15.686229 0.848676 -1.104396
v 15.435631 1.055793 -1.016998
v 15.654499 1.078835 -0.901291
v 15.444370 1.183051 0.485252
v 15.084700 1.040090 0.789061
v 15.581661 0.363217 -1.353223
v 15.268586 1.416548 -0.046522
v 15.676086 1.339059 -0.166822
v 7.899893 0.087060 1.185199
v 7.895743 1.049918 0.863002
v 7.868000 1.487992 -0.052556
v 7.832914 1.144662 -1.025154
v 7.811038 0.221047 -1.485058
v 12.641407 0.094941 1.193204
v 11.345497 0.262602 1.086211
v 9.528613 0.071329 1.237234
v 11.148279 0.140252 -1.485420
v 9.482536 0.195460 -1.434581
v 12.614476 1.094854 -0.970008
v 11.106226 1.064263 -1.027720
v 9.440484 1.119472 -0.976880
v 12.781086 1.448771 -0.051882
v 11.102303 1.410643 -0.055579
v 9.460611 1.392367 -0.089532
v 12.581110 1.013658 0.810366
v 11.138806 0.976489 0.861538
v 9.476080 0.987479 0.854321
v 7.192864 0.954193 0.839750
v 7.083312 1.443015 -0.067870
v 7.317110 1.140472 0.432734
v 7.230807 0.214837 1.005787
v 7.063033 0.501032 0.943899
v 7.186617 0.584637 0.924151
v 7.027122 1.104848 -1.058799
v 7.223715 0.236805 -1.521786
v 7.102381 0.619304 -1.315073
v 6.888576 0.793308 -1.230575
v 6.806104 1.332974 -0.443393
v 11.159421 0.620090 0.982094
v 11.545882 0.039544 1.161734
v 11.011857 0.372157 1.072150
v 10.955834 0.024026 1.193674
v 12.652566 0.843533 -1.171848
v 12.351234 0.198407 -1.480849
v 12.409206 0.485205 -1.340708
v 12.694231 0.531887 -1.324655
v 12.833939 0.211305 -1.476725
v 12.874598 0.321787 -1.426869
v 9.474268 1.284029 -0.551122
v 9.055531 1.298125 -0.534391
v 9.670914 1.370040 -0.290524
v 9.397738 1.477595 -0.217292
v 9.408666 1.384772 -0.476525
v 9.181357 1.405876 -0.455104
v 9.506853 1.434609 -0.312782
v 9.339945 1.643557 -0.352523
v 9.369873 1.613242 -0.569158
v 9.221605 1.641468 -0.542533
v 9.415795 1.631244 -0.421622
v 9.331051 1.901619 -0.441230
v 9.350365 1.886328 -0.596893
v 9.261062 1.899872 -0.566887
v 9.370736 1.908027 -0.490875
v 9.133669 1.409610 -0.140987
v 9.194054 1.453434 -0.240119
v 9.218857 1.631278 -0.356491
v 9.244265 1.894069 -0.447377
v 12.843825 1.220096 0.524707
v 13.329208 1.293211 0.311748
v 12.532783 1.328779 0.274211
v 12.807942 1.494910 0.051639
v 12.862755 1.330167 0.487027
v 13.217728 1.384782 0.333244
v 12.618413 1.414350 0.282900
v 13.078106 1.448385 0.080497
v 13.119360 1.384765 0.011016
v 14.364220 0.046213 -1.275460
v 14.256216 0.959917 -0.888085
v 14.222945 1.260157 -0.009019
v 14.088797 0.953765 0.749162
v 14.161650 0.051538 1.058490
v 15.399578 1.166835 0.096542
v 14.684164 0.033008 1.066995
v 14.697802 0.723181 0.796567
v 14.856270 0.429590 0.934675
v 14.717304 0.364847 0.955905
v 14.879168 0.868638 0.810098
v 15.685435 0.717842 -0.936247
v 15.435299 0.892715 -0.873668
v 15.651970 0.896781 -0.791103
v 15.445873 1.011178 0.475134
v 15.086264 0.870520 0.773853
v 15.583676 0.234325 -1.183989
v 15.268791 1.227705 0.007929
v 15.673458 1.156995 -0.056677
v 7.908063 0.089822 1.015908
v 7.905352 0.948302 0.756863
v 7.875712 1.300165 -0.008050
v 7.837683 0.981560 -0.881579
v 7.812023 0.089358 -1.317240
v 12.644617 0.084409 1.028553
v 11.346848 0.272441 0.914280
v 9.525304 0.062976 1.071636
v 11.155122 0.009551 -1.317026
v 9.486691 0.064683 -1.266214
v 12.624011 0.927579 -0.831692
v 11.112127 0.902498 -0.882628
v 9.444199 0.957436 -0.832120
v 12.797334 1.264392 0.050338
v 11.112720 1.222389 -0.007118
v 9.432613 1.223048 -0.095934
v 12.585711 0.921403 0.695690
v 11.142392 0.878551 0.751784
v 9.473157 0.878080 0.755368
v 7.208651 0.884830 0.708280
v 7.092833 1.253636 -0.003213
v 7.337842 0.975731 0.409928
v 7.250754 0.245843 0.830380
v 7.059051 0.528860 0.767157
v 7.196608 0.607297 0.749223
v 7.032402 0.942260 -0.914634
v 7.221946 0.101000 -1.356346
v 7.103854 0.486155 -1.147991
v 6.890199 0.659634 -1.063763
v 6.804834 1.150445 -0.334280
v 11.148141 0.622969 0.812695
v 11.544156 0.040830 0.992556
v 11.007260 0.372035 0.903492
v 10.948345 0.026736 1.024115
v 12.673035 0.701023 -1.011550
v 12.358334 0.067843 -1.312390
v 12.417181 0.350031 -1.174683
v 12.698933 0.401491 -1.156100
v 12.835993 0.085332 -1.306164
v 12.877821 0.194051 -1.257067
v 9.468071 1.109428 -0.425250
v 9.067904 1.117995 -0.418860
v 9.654454 1.182653 -0.222753
v 9.367591 1.334449 -0.270581
v 9.371353 1.264627 -0.312677
v 9.258896 1.274347 -0.319534
v 9.425780 1.279912 -0.253158
v 9.296464 1.595684 -0.491326
v 9.311007 1.576881 -0.406251
v 9.328839 1.601176 -0.414203
v 9.277303 1.572996 -0.423253
v 9.297970 1.781448 -0.522889
v 9.292542 1.767816 -0.444137
v 9.341710 1.759272 -0.443731
v 9.282957 1.763998 -0.474420
v 9.150900 1.225381 -0.112638
v 9.271843 1.304729 -0.249348
v 9.331461 1.575621 -0.435671
v 9.334428 1.783642 -0.502056
v 12.844039 1.133117 0.405590
v 13.315281 1.121973 0.303127
v 12.564298 1.162386 0.258711
v 12.842354 1.319492 0.168508
v 12.867970 1.328023 0.319258
v 13.129876 1.304508 0.246924
v 12.716032 1.296191 0.249036
v 13.032161 1.279961 0.190676
v 13.103839 1.199919 0.104537
vt 0.322141 0.896069
vt 0.332325 0.971430
vt 0.305613 0.903715
vt 0.151078 0.750779
vt 0.083849 0.757787
vt 0.065866 0.753233
vt 0.404764 0.826761
vt 0.409704 0.900745
vt 0.313302 0.840301
vt 0.304064 0.879695
vt 0.410313 0.974154
vt 0.302323 0.959903
vt 0.044359 0.696560
vt 0.132916 0.688851
vt 0.034378 0.707901
vt 0.033276 0.734457
vt 0.151314 0.818271
vt 0.101818 0.799688
vt 0.106671 0.822569
vt 0.089915 0.795400
vt 0.100831 0.775510
vt 0.281564 0.808749
vt 0.282921 0.745043
vt 0.517293 0.977244
vt 0.531437 0.906008
vt 0.518301 0.830798
vt 0.514879 0.839398
vt 0.893454 0.904103
vt 0.771111 0.913806
vt 0.767668 0.838231
vt 0.891040 0.830338
vt 0.644221 0.904641
vt 0.644203 0.830086
vt 0.529465 0.881833
vt 0.549241 0.854116
vt 0.898320 0.975432
vt 0.801391 0.950081
vt 0.765834 0.948532
vt 0.749137 0.966620
vt 0.642289 0.979171
vt 0.552596 0.755478
vt 0.555167 0.688439
vt 0.583159 0.687897
vt 0.414074 0.687222
vt 0.535930 0.674879
vt 0.410818 0.750773
vt 0.286242 0.704876
vt 0.264941 0.679653
vt 0.683262 0.822569
vt 0.547522 0.816172
vt 0.683618 0.760290
vt 0.426668 0.814737
vt 0.421959 0.791449
vt 0.688941 0.698806
vt 0.754800 0.703314
vt 0.733853 0.737122
vt 0.954042 0.967842
vt 0.933650 0.826761
vt 0.943961 0.857084
vt 0.951574 0.895538
vt 0.971342 0.939515
vt 0.741702 0.766429
vt 0.960203 0.869549
vt 0.743146 0.791143
vt 0.753751 0.796709
vt 0.740281 0.815825
vt 0.376370 0.812881
vt 0.527536 0.856661
vt 0.554585 0.831248
vt 0.409287 0.774628
vt 0.393471 0.798324
vt 0.792072 0.962488
vt 0.770521 0.958914
vt 0.760231 0.969234
vt 0.561175 0.679130
vt 0.549500 0.673141
vt 0.559770 0.663319
vt 0.567738 0.666194
vt 0.782776 0.975154
vt 0.774775 0.972117
vt 0.804626 0.981058
vt 0.798220 0.978694
vt 0.789633 0.981784
vt 0.779876 0.988450
vt 0.778249 0.983630
vt 0.767487 0.975685
vt 0.774357 0.988937
vt 0.775045 0.981901
vt 0.772585 0.986009
vt 0.568996 0.647919
vt 0.573201 0.649718
vt 0.579618 0.652086
vt 0.578080 0.668751
vt 0.579152 0.680715
vt 0.492193 0.981167
vt 0.259604 0.723758
vt 0.217777 0.709440
vt 0.274850 0.704393
vt 0.261174 0.690212
vt 0.231588 0.707510
vt 0.257159 0.715297
vt 0.233827 0.683563
vt 0.240340 0.691392
vt 0.322141 0.896069
vt 0.305613 0.903715
vt 0.332325 0.971430
vt 0.151078 0.750779
vt 0.065866 0.753233
vt 0.083849 0.757787
vt 0.404764 0.826761
vt 0.313302 0.840301
vt 0.409704 0.900745
vt 0.304064 0.879695
vt 0.410313 0.974154
vt 0.302323 0.959903
vt 0.044359 0.696560
vt 0.034378 0.707901
vt 0.132916 0.688851
vt 0.033276 0.734457
vt 0.101818 0.799688
vt 0.151314 0.818271
vt 0.106671 0.822569
vt 0.100831 0.775510
vt 0.089915 0.795400
vt 0.281564 0.808749
vt 0.282921 0.745043
vt 0.517293 0.977244
vt 0.531437 0.906008
vt 0.514879 0.839398
vt 0.518301 0.830798
vt 0.893454 0.904103
vt 0.891040 0.830338
vt 0.767668 0.838231
vt 0.771111 0.913806
vt 0.644203 0.830086
vt 0.644221 0.904641
vt 0.549241 0.854116
vt 0.529465 0.881833
vt 0.801391 0.950081
vt 0.898320 0.975432
vt 0.749137 0.966620
vt 0.765834 0.948532
vt 0.642289 0.979171
vt 0.552596 0.755478
vt 0.583159 0.687897
vt 0.555167 0.688439
vt 0.414074 0.687222
vt 0.410818 0.750773
vt 0.535930 0.674879
vt 0.286242 0.704876
vt 0.264941 0.679653
vt 0.683262 0.822569
vt 0.683618 0.760290
vt 0.547522 0.816172
vt 0.421959 0.791449
vt 0.426668 0.814737
vt 0.688941 0.698806
vt 0.733853 0.737122
vt 0.754800 0.703314
vt 0.954042 0.967842
vt 0.943961 0.857084
vt 0.933650 0.826761
vt 0.971342 0.939515
vt 0.951574 0.895538
vt 0.741702 0.766429
vt 0.960203 0.869549
vt 0.743146 0.791143
vt 0.740281 0.815825
vt 0.753751 0.796709
vt 0.376370 0.812881
vt 0.527536 0.856661
vt 0.554585 0.831248
vt 0.409287 0.774628
vt 0.393471 0.798324
vt 0.770521 0.958914
vt 0.792072 0.962488
vt 0.760231 0.969234
vt 0.561175 0.679130
vt 0.567738 0.666194
vt 0.559770 0.663319
vt 0.549500 0.673141
vt 0.774775 0.972117
vt 0.782776 0.975154
vt 0.798220 0.978694
vt 0.804626 0.981058
vt 0.778249 0.983630
vt 0.779876 0.988450
vt 0.789633 0.981784
vt 0.767487 0.975685
vt 0.775045 0.981901
vt 0.774357 0.988937
vt 0.772585 0.986009
vt 0.573201 0.649718
vt 0.568996 0.647919
vt 0.579618 0.652086
vt 0.578080 0.668751
vt 0.579152 0.680715
vt 0.492193 0.981167
vt 0.259604 0.723758
vt 0.217777 0.709440
vt 0.261174 0.690212
vt 0.274850 0.704393
vt 0.257159 0.715297
vt 0.231588 0.707510
vt 0.233827 0.683563
vt 0.240340 0.691392
vn 0.3004 0.6926 -0.6557
vn 0.2361 0.9652 0.1121
vn 0.6973 0.3123 -0.6451
vn 0.0009 0.6941 0.7198
vn 0.2685 0.4105 0.8714
vn 0.3515 0.4441 0.8241
vn 0.0630 -0.2839 -0.9568
vn 0.0182 0.7515 -0.6594
vn 0.5673 -0.1822 -0.8031
vn 0.7764 0.5335 -0.3355
vn 0.0158 0.9986 0.0499
vn 0.6949 0.6869 0.2127
vn 0.7424 0.6492 -0.1651
vn 0.7324 0.5189 0.4407
vn -0.0462 -0.5544 0.8309
vn 0.5283 0.0122 0.8490
vn 0.5163 -0.5153 0.6840
vn 0.7515 -0.0979 0.6524
vn 0.5256 0.3044 0.7944
vn -0.0218 -0.5293 0.8482
vn -0.0191 0.6457 0.7633
vn -0.0818 0.9591 -0.2709
vn -0.0371 0.7949 -0.6056
vn -0.6922 -0.1104 -0.7132
vn -0.5171 0.2430 -0.8207
vn 0.0095 0.7550 -0.6556
vn 0.0198 0.7449 -0.6668
vn -0.0056 -0.2220 -0.9750
vn 0.0354 -0.2172 -0.9755
vn -0.0018 0.7421 -0.6703
vn -0.0116 -0.2377 -0.9713
vn -0.1662 0.4156 -0.8942
vn 0.5510 0.1708 -0.8168
vn -0.0166 0.9965 0.0817
vn -0.0638 0.9205 -0.3855
vn 0.1174 0.8683 -0.4820
vn 0.1895 0.9807 -0.0476
vn -0.0372 0.9973 0.0632
vn 0.0266 0.7081 0.7056
vn 0.2257 0.8987 0.3760
vn -0.0932 0.9738 0.2073
vn -0.0140 0.6652 0.7465
vn -0.2263 0.8740 0.4300
vn -0.1437 -0.5940 0.7915
vn -0.0079 -0.5445 0.8387
vn -0.0553 0.6807 0.7305
vn 0.5238 -0.5190 0.6754
vn 0.6915 0.0432 0.7211
vn -0.4893 0.8266 0.2780
vn -0.6613 0.6312 0.4053
vn -0.4654 -0.1960 -0.8631
vn -0.4773 0.0850 -0.8746
vn -0.5347 0.6458 -0.5450
vn -0.7778 0.6150 -0.1296
vn -0.7173 0.4741 0.5105
vn -0.7829 0.1782 -0.5960
vn -0.4678 0.4720 0.7472
vn -0.8151 0.1744 0.5524
vn -0.5522 -0.6057 0.5729
vn -0.3206 -0.5974 0.7350
vn -0.7039 0.0653 -0.7072
vn 0.5172 -0.1993 -0.8323
vn 0.0606 -0.0250 0.9978
vn -0.6643 -0.2526 0.7035
vn -0.6129 0.5025 -0.6097
vn 0.3667 0.4166 -0.8318
vn 0.6420 0.7645 -0.0583
vn 0.2221 0.8099 0.5429
vn 0.9505 0.2922 0.1051
vn 0.2951 0.5017 0.8131
vn -0.7468 -0.0710 -0.6612
vn 0.4552 -0.1279 -0.8811
vn -0.5231 0.7855 0.3306
vn -0.7434 0.3937 0.5406
vn -0.6258 0.6428 0.4417
vn -0.5326 0.6476 -0.5449
vn 0.2385 0.7486 0.6185
vn 0.4137 0.4726 -0.7781
vn 0.5802 0.8121 0.0621
vn 0.1882 0.9604 -0.2053
vn 0.0186 0.6506 0.7592
vn 0.1512 0.8995 0.4100
vn -0.3095 0.8814 0.3568
vn -0.0677 0.9944 0.0813
vn 0.3171 0.8342 0.4512
vn -0.0184 0.7604 0.6491
vn 0.2118 0.9707 0.1135
vn 0.2945 -0.7442 0.5995
vn 0.6141 -0.7787 -0.1286
vn 0.3318 -0.9379 -0.1013
vn -0.0064 -0.6946 -0.7193
vn 0.3760 -0.8283 0.4152
vn 0.4237 -0.9036 0.0631
vn 0.0519 -0.9695 0.2394
vn 0.5542 -0.8014 0.2248
vn -0.0172 -0.7481 0.6633
vn 0.7086 -0.1032 0.6980
vn -0.0180 -0.9988 -0.0454
vn 0.5882 -0.4010 0.7023
vn 0.6446 -0.5524 -0.5285
vn 0.7458 -0.6577 0.1053
vn 0.3951 -0.5873 -0.7064
vn -0.0113 -0.8226 -0.5685
vn 0.5541 -0.6910 -0.4641
vn 0.4779 -0.2767 -0.8337
vn 0.8085 -0.3617 -0.4642
vn 0.0278 -0.8310 -0.5556
vn 0.0225 -0.6467 -0.7624
vn 0.0876 -0.9512 0.2958
vn 0.0363 -0.7913 0.6102
vn -0.5688 -0.3909 0.7237
vn -0.6635 -0.7109 0.2331
vn -0.0094 -0.7505 0.6608
vn -0.0197 -0.9742 0.2245
vn -0.0230 -0.9700 0.2418
vn -0.0168 -0.7447 0.6672
vn 0.0103 -0.9766 0.2149
vn 0.0008 -0.7381 0.6747
vn 0.6637 -0.5489 0.5080
vn 0.0574 -0.7107 0.7011
vn 0.0551 -0.9169 0.3952
vn 0.0220 -0.9972 -0.0708
vn -0.1663 -0.9843 0.0593
vn -0.0958 -0.8596 0.5018
vn 0.0315 -0.9982 -0.0499
vn -0.0274 -0.7044 -0.7093
vn 0.1103 -0.9800 -0.1655
vn -0.1952 -0.9039 -0.3805
vn 0.0141 -0.6538 -0.7565
vn 0.1693 -0.8803 -0.4431
vn -0.0224 -0.8219 -0.5692
vn 0.0657 -0.6761 -0.7338
vn -0.0213 -0.8292 -0.5585
vn 0.5516 -0.4567 -0.6979
vn 0.5096 -0.7136 -0.4806
vn -0.4825 -0.7918 -0.3743
vn -0.6857 -0.5880 0.4291
vn -0.5913 -0.6270 0.5071
vn -0.4990 -0.8589 0.1148
vn -0.7754 -0.5191 0.3596
vn -0.7043 -0.5166 0.4869
vn -0.7743 -0.2548 -0.5793
vn -0.7828 -0.4726 0.4047
vn -0.4641 0.0645 -0.8834
vn -0.3167 -0.6811 -0.6601
vn -0.7854 0.1894 -0.5892
vn -0.3032 -0.8110 -0.5004
vn -0.7094 -0.5560 0.4331
vn 0.5397 -0.8246 0.1697
vn -0.0536 -0.4352 -0.8987
vn -0.5112 -0.5472 -0.6627
vn -0.4021 -0.3842 0.8310
vn 0.4939 -0.6036 0.6258
vn -0.5331 -0.8248 0.1882
vn 0.3360 -0.6103 -0.7173
vn 0.5636 0.1588 0.8107
vn 0.9695 0.0462 -0.2406
vn -0.4006 0.1002 0.9107
vn -0.5371 -0.2047 -0.8183
vn 0.3841 -0.8404 -0.3822
vn -0.6912 -0.4623 -0.5555
vn -0.6777 -0.7165 0.1654
vn -0.4625 -0.6876 -0.5596
vn 0.3148 -0.6204 -0.7183
vn 0.1378 -0.6845 0.7158
vn 0.9140 -0.3911 -0.1074
vn -0.2017 -0.9298 0.3079
vn 0.0148 -0.6684 -0.7436
vn -0.0823 -0.9052 -0.4168
vn 0.3061 -0.1967 0.9314
vn 0.9942 -0.0838 -0.0665
vn 0.1412 0.4786 -0.8666
vn -0.9818 0.1798 0.0614
vn -0.4889 -0.2515 0.8353
g Timber_3_Cylinder.022_Timber_Textrue
usemtl Timber_Textrue
s 1
f 451/479/439 456/480/440 452/481/441
f 442/482/442 449/483/443 454/484/444
f 439/485/445 440/486/446 455/487/447
f 440/486/446 451/479/439 455/487/447
f 451/479/439 450/488/448 455/487/447
f 451/479/439 440/486/446 456/480/440
f 440/486/446 441/489/449 456/480/440
f 456/480/440 457/490/450 452/481/441
f 456/491/440 441/492/449 444/493/451
f 441/492/449 442/482/442 454/484/444
f 444/493/451 441/492/449 453/494/452
f 442/482/442 443/495/453 448/496/454
f 443/495/453 445/497/455 448/496/454
f 448/496/454 447/498/456 446/499/457
f 453/494/452 441/492/449 454/484/444
f 442/482/442 448/496/454 446/499/457
f 442/482/442 446/499/457 449/483/443
f 463/500/458 443/495/453 442/482/442 474/501/459
f 471/502/460 440/486/446 468/503/461
f 439/485/445 496/504/462 497/505/463
f 461/506/464 470/507/465 467/508/466 462/509/467
f 470/507/465 469/510/468 466/511/469 467/508/466
f 468/503/461 492/512/470 494/513/471
f 461/506/464 460/514/472 499/515/473
f 470/507/465 498/516/474 500/517/475
f 472/518/476 471/502/460 468/503/461 469/510/468
f 476/519/477 473/520/478 513/521/479
f 472/522/476 500/523/475 475/524/480
f 519/525/481 471/526/460 472/522/476
f 458/527/482 465/528/483 476/519/477 459/529/484
f 465/528/483 491/530/485 490/531/486
f 460/532/472 478/533/487 479/534/488
f 461/506/464 478/535/487 460/514/472
f 462/509/467 484/536/489 485/537/490
f 478/535/487 483/538/491 487/539/492
f 477/540/493 459/529/484 479/534/488
f 459/529/484 460/532/472 479/534/488
f 483/538/491 461/506/464 485/537/490
f 461/506/464 462/509/467 485/537/490
f 483/538/491 485/537/490 486/541/494
f 458/527/482 459/529/484 482/542/495
f 459/529/484 477/540/493 482/542/495
f 482/542/495 481/543/496 480/544/497
f 458/527/482 482/542/495 480/544/497
f 461/506/464 483/538/491 478/535/487
f 489/545/498 463/500/458 474/501/459
f 497/505/463 495/546/499 492/512/470
f 468/503/461 440/486/446 492/512/470
f 440/486/446 439/485/445 497/505/463
f 440/486/446 497/505/463 492/512/470
f 466/511/469 469/510/468 494/513/471
f 469/510/468 468/503/461 494/513/471
f 493/547/500 466/511/469 494/513/471
f 476/519/477 465/528/483 490/531/486
f 475/524/480 476/519/477 490/531/486
f 488/548/501 475/524/480 490/531/486
f 488/548/501 464/549/502 475/524/480
f 489/545/498 474/501/459 475/524/480
f 464/549/502 489/545/498 475/524/480
f 498/516/474 499/515/473 503/550/503 502/551/504
f 500/517/475 498/516/474 502/551/504 504/552/505
f 501/553/506 504/554/505 508/555/507 505/556/508
f 502/551/504 503/550/503 507/557/509 506/558/510
f 473/520/478 500/523/475 504/554/505 501/553/506
f 499/515/473 513/559/479 514/560/511 503/550/503
f 507/557/509 515/561/512 516/562/513 511/563/514
f 503/550/503 514/560/511 515/561/512 507/557/509
f 504/552/505 502/551/504 506/558/510 508/564/507
f 511/563/514 509/565/515 510/566/516
f 512/567/517 510/566/516 509/565/515
f 508/564/507 506/558/510 510/566/516 512/567/517
f 506/558/510 507/557/509 511/563/514 510/566/516
f 505/556/508 508/555/507 512/568/517 509/569/515
f 516/570/513 515/571/512 505/556/508 509/569/515
f 514/572/511 513/521/479 473/520/478 501/553/506
f 515/571/512 514/572/511 501/553/506 505/556/508
f 499/515/473 498/516/474 470/507/465
f 460/514/472 513/559/479 499/515/473
f 470/507/465 461/506/464 499/515/473
f 500/523/475 473/520/478 476/519/477
f 472/518/476 469/510/468 500/517/475
f 469/510/468 470/507/465 500/517/475
f 460/532/472 459/529/484 513/521/479
f 459/529/484 476/519/477 513/521/479
f 475/524/480 500/523/475 476/519/477
f 471/502/460 525/573/518 441/489/449 440/486/446
f 472/522/476 475/524/480 519/525/481
f 475/524/480 474/501/459 519/525/481
f 474/501/459 517/574/519 519/525/481
f 517/574/519 474/501/459 518/575/520
f 474/501/459 442/482/442 518/575/520
f 442/482/442 441/492/449 518/575/520
f 511/563/514 516/562/513 509/565/515
f 471/526/460 519/525/481 523/576/521 520/577/522
f 517/574/519 518/575/520 522/578/523 521/579/524
f 525/580/518 471/526/460 520/577/522 524/581/525
f 519/525/481 517/574/519 521/579/524 523/576/521
f 518/575/520 525/580/518 524/581/525 522/578/523
f 441/492/449 525/580/518 518/575/520
f 538/582/526 539/583/527 543/584/528
f 529/585/529 541/586/530 536/587/531
f 526/588/532 542/589/533 527/590/534
f 527/590/534 542/589/533 538/582/526
f 538/582/526 542/589/533 537/591/535
f 538/582/526 543/584/528 527/590/534
f 527/590/534 543/584/528 528/592/536
f 543/584/528 539/583/527 544/593/537
f 543/594/528 531/595/538 528/596/536
f 528/596/536 541/586/530 529/585/529
f 531/595/538 540/597/539 528/596/536
f 529/585/529 535/598/540 530/599/541
f 530/599/541 535/598/540 532/600/542
f 535/598/540 533/601/543 534/602/544
f 540/597/539 541/586/530 528/596/536
f 529/585/529 533/601/543 535/598/540
f 529/585/529 536/587/531 533/601/543
f 550/603/545 561/604/546 529/585/529 530/599/541
f 558/605/547 555/606/548 527/590/534
f 526/588/532 584/607/549 583/608/550
f 548/609/551 549/610/552 554/611/553 557/612/554
f 557/612/554 554/611/553 553/613/555 556/614/556
f 555/606/548 581/615/557 579/616/558
f 548/609/551 586/617/559 547/618/560
f 557/612/554 587/619/561 585/620/562
f 559/621/563 556/614/556 555/606/548 558/605/547
f 563/622/564 600/623/565 560/624/566
f 559/625/563 562/626/567 587/627/561
f 606/628/568 559/625/563 558/629/547
f 545/630/569 546/631/570 563/622/564 552/632/571
f 552/632/571 577/633/572 578/634/573
f 547/635/560 566/636/574 565/637/575
f 548/609/551 547/618/560 565/638/575
f 549/610/552 572/639/576 571/640/577
f 565/638/575 574/641/578 570/642/579
f 564/643/580 566/636/574 546/631/570
f 546/631/570 566/636/574 547/635/560
f 570/642/579 572/639/576 548/609/551
f 548/609/551 572/639/576 549/610/552
f 570/642/579 573/644/581 572/639/576
f 545/630/569 569/645/582 546/631/570
f 546/631/570 569/645/582 564/643/580
f 569/645/582 567/646/583 568/647/584
f 545/630/569 567/646/583 569/645/582
f 548/609/551 565/638/575 570/642/579
f 576/648/585 561/604/546 550/603/545
f 584/607/549 579/616/558 582/649/586
f 555/606/548 579/616/558 527/590/534
f 527/590/534 584/607/549 526/588/532
f 527/590/534 579/616/558 584/607/549
f 553/613/555 581/615/557 556/614/556
f 556/614/556 581/615/557 555/606/548
f 580/650/587 581/615/557 553/613/555
f 563/622/564 577/633/572 552/632/571
f 562/626/567 577/633/572 563/622/564
f 575/651/588 577/633/572 562/626/567
f 575/651/588 562/626/567 551/652/589
f 576/648/585 562/626/567 561/604/546
f 551/652/589 562/626/567 576/648/585
f 585/620/562 589/653/590 590/654/591 586/617/559
f 587/619/561 591/655/592 589/653/590 585/620/562
f 588/656/593 592/657/594 595/658/595 591/659/592
f 589/653/590 593/660/596 594/661/597 590/654/591
f 560/624/566 588/656/593 591/659/592 587/627/561
f 586/617/559 590/654/591 601/662/598 600/663/565
f 594/661/597 598/664/599 603/665/600 602/666/601
f 590/654/591 594/661/597 602/666/601 601/662/598
f 591/655/592 595/667/595 593/660/596 589/653/590
f 598/664/599 597/668/602 596/669/603
f 599/670/604 596/669/603 597/668/602
f 595/667/595 599/670/604 597/668/602 593/660/596
f 593/660/596 597/668/602 598/664/599 594/661/597
f 592/657/594 596/671/603 599/672/604 595/658/595
f 603/673/600 596/671/603 592/657/594 602/674/601
f 601/675/598 588/656/593 560/624/566 600/623/565
f 602/674/601 592/657/594 588/656/593 601/675/598
f 586/617/559 557/612/554 585/620/562
f 547/618/560 586/617/559 600/663/565
f 557/612/554 586/617/559 548/609/551
f 587/627/561 563/622/564 560/624/566
f 559/621/563 587/619/561 556/614/556
f 556/614/556 587/619/561 557/612/554
f 547/635/560 600/623/565 546/631/570
f 546/631/570 600/623/565 563/622/564
f 562/626/567 563/622/564 587/627/561
f 558/605/547 527/590/534 528/592/536 612/676/605
f 559/625/563 606/628/568 562/626/567
f 562/626/567 606/628/568 561/604/546
f 561/604/546 606/628/568 604/677/606
f 604/677/606 605/678/607 561/604/546
f 561/604/546 605/678/607 529/585/529
f 529/585/529 605/678/607 528/596/536
f 598/664/599 596/669/603 603/665/600
f 558/629/547 607/679/608 610/680/609 606/628/568
f 604/677/606 608/681/610 609/682/611 605/678/607
f 612/683/605 611/684/612 607/679/608 558/629/547
f 606/628/568 610/680/609 608/681/610 604/677/606
f 605/678/607 609/682/611 611/684/612 612/683/605
f 528/596/536 605/678/607 612/683/605
f 449/483/443 446/499/457 533/601/543 536/587/531
f 446/499/457 447/498/456 534/602/544 533/601/543
f 447/498/456 448/496/454 535/598/540 534/602/544
f 448/496/454 445/497/455 532/600/542 535/598/540
f 454/484/444 449/483/443 536/587/531 541/586/530
f 450/488/448 451/479/439 538/582/526 537/591/535
f 451/479/439 452/481/441 539/583/527 538/582/526
f 444/493/451 453/494/452 540/597/539 531/595/538
f 456/491/440 444/493/451 531/595/538 543/594/528
f 452/481/441 457/490/450 544/593/537 539/583/527
f 457/490/450 456/480/440 543/584/528 544/593/537
f 445/497/455 443/495/453 530/599/541 532/600/542
f 439/485/445 455/487/447 542/589/533 526/588/532
f 455/487/447 450/488/448 537/591/535 542/589/533
f 453/494/452 454/484/444 541/586/530 540/597/539
f 465/528/483 458/527/482 545/630/569 552/632/571
f 462/509/467 467/508/466 554/611/553 549/610/552
f 443/495/453 463/500/458 550/603/545 530/599/541
f 491/530/485 465/528/483 552/632/571 578/634/573
f 466/511/469 493/547/500 580/650/587 553/613/555
f 467/508/466 466/511/469 553/613/555 554/611/553
f 477/540/493 479/534/488 566/636/574 564/643/580
f 479/534/488 478/533/487 565/637/575 566/636/574
f 480/544/497 481/543/496 568/647/584 567/646/583
f 481/543/496 482/542/495 569/645/582 568/647/584
f 482/542/495 477/540/493 564/643/580 569/645/582
f 485/537/490 484/536/489 571/640/577 572/639/576
f 486/541/494 485/537/490 572/639/576 573/644/581
f 478/535/487 487/539/492 574/641/578 565/638/575
f 487/539/492 483/538/491 570/642/579 574/641/578
f 483/538/491 486/541/494 573/644/581 570/642/579
f 458/527/482 480/544/497 567/646/583 545/630/569
f 484/536/489 462/509/467 549/610/552 571/640/577
f 488/548/501 490/531/486 577/633/572 575/651/588
f 463/500/458 489/545/498 576/648/585 550/603/545
f 489/545/498 464/549/502 551/652/589 576/648/585
f 464/549/502 488/548/501 575/651/588 551/652/589
f 490/531/486 491/530/485 578/634/573 577/633/572
f 494/513/471 492/512/470 579/616/558 581/615/557
f 493/547/500 494/513/471 581/615/557 580/650/587
f 492/512/470 495/546/499 582/649/586 579/616/558
f 496/504/462 439/485/445 526/588/532 583/608/550
f 495/546/499 497/505/463 584/607/549 582/649/586
f 497/505/463 496/504/462 583/608/550 584/607/549
f 521/579/524 522/578/523 609/682/611 608/681/610
f 523/576/521 521/579/524 608/681/610 610/680/609
f 520/577/522 523/576/521 610/680/609 607/679/608
f 522/578/523 524/581/525 611/684/612 609/682/611
f 524/581/525 520/577/522 607/679/608 611/684/612
